<?xml version="1.0" encoding="utf-8"?>
<!-- Generator: Adobe Illustrator 19.2.1, SVG Export Plug-In . SVG Version: 6.00 Build 0)  -->
<svg version="1.1" id="Layer_1" xmlns="http://www.w3.org/2000/svg" xmlns:xlink="http://www.w3.org/1999/xlink" x="0px" y="0px"
	 viewBox="0 0 174.4 44" style="enable-background:new 0 0 174.4 44;" xml:space="preserve">
<style type="text/css">
	.st0{enable-background:new    ;}
	.st1{fill:#D52B1E;}
	.st2{fill:#949494;}
</style>
<g>
	<g class="st0">
		<path class="st1" d="M18.4,6.8h-6.5c-1,0-1.7,0.1-2.2,0.2S9,7.4,9,7.8c0,0.3,0.1,0.6,0.3,0.9c0.2,0.3,0.5,0.6,0.8,1l0.2,0.2l5.4,6
			c1.2,1.3,2.1,2.5,2.7,3.5s0.9,2.2,0.9,3.5c0,0.8-0.1,1.5-0.4,2.3c-0.2,0.8-0.7,1.5-1.3,2.2c-0.6,0.7-1.4,1.3-2.5,1.7
			c-1.1,0.4-2.4,0.7-3.9,0.7h-9l-1.8-6.7h7c1,0,1.7-0.1,2.2-0.2s0.7-0.4,0.7-0.8c0-0.3-0.1-0.6-0.3-0.9s-0.5-0.6-0.8-1L9,20l-5.3-6
			c-1.2-1.4-2.1-2.6-2.7-3.6S0.1,8.2,0.1,6.9c0-0.8,0.1-1.5,0.4-2.3c0.2-0.8,0.7-1.5,1.3-2.2s1.4-1.3,2.5-1.7S6.7,0,8.2,0h8.4
			L18.4,6.8z"/>
		<path class="st1" d="M43.1,6.8h-8.3v23H27v-23h-8.3l1.8-6.7h20.7L43.1,6.8z"/>
		<path class="st1" d="M64.4,6.8h-12v4.4h10.9l-1.8,6.7h-9v5.2h12.8l-1.8,6.7H44.7V0.1h17.9L64.4,6.8z"/>
		<path class="st1" d="M90.6,29.8h-7.8v-9.4h-8.5c0,1.6,0.3,3.2,0.8,4.8s1.2,3.1,2.2,4.6L71,34c-1.5-2.2-2.6-4.6-3.4-7.1
			s-1.2-5.1-1.2-7.6c0-2.7,0.4-5.3,1.3-7.8s2.2-4.6,4-6.4c1.9-1.9,4-3.2,6.3-3.9s5-1,8.2-1H90l1.8,6.7h-6.1c-1.9,0-3.5,0.2-4.8,0.6
			s-2.3,1-3.1,1.6c-0.8,0.7-1.3,1.3-1.7,2c-0.4,0.7-0.8,1.5-1.1,2.4l0,0.2h7.7v-6h7.8L90.6,29.8L90.6,29.8z"/>
		<path class="st1" d="M116.5,6.8h-8.3v23h-7.8v-23h-8.3l1.8-6.7h20.7L116.5,6.8z"/>
		<path class="st1" d="M126,29.8h-7.8V0.1h7.8V29.8z"/>
		<path class="st1" d="M152.1,6.8h-8.3v23H136v-23h-8.3l1.8-6.7h20.7L152.1,6.8z"/>
		<path class="st1" d="M173.4,6.8h-12v4.4h10.9l-1.8,6.7h-9v5.2h12.8l-1.8,6.7h-18.7V0.1h17.9L173.4,6.8z"/>
	</g>
	<g>
		<path class="st2" d="M4,43H3.7c-0.5,0-1-0.1-1.5-0.3c-0.5-0.2-0.9-0.5-1.2-0.9c-0.3-0.4-0.6-0.8-0.8-1.3C0.1,40,0,39.5,0,39
			c0-0.3,0-0.7,0.1-1c0.1-0.3,0.2-0.6,0.4-0.8c0.2-0.2,0.5-0.4,0.8-0.6c0.3-0.1,0.7-0.2,1.2-0.2H4l0.4,1.5H3c-0.1,0-0.3,0-0.4,0
			c-0.1,0-0.3,0.1-0.4,0.1c-0.1,0.1-0.3,0.2-0.3,0.4c-0.1,0.2-0.1,0.4-0.1,0.7c0,0.3,0.1,0.6,0.2,0.9c0.1,0.3,0.3,0.5,0.5,0.8
			c0.2,0.2,0.5,0.4,0.8,0.5c0.3,0.1,0.7,0.2,1,0.2c0,0,0.1,0,0.1,0c0,0,0.1,0,0.1,0L4,43z"/>
		<path class="st2" d="M6.3,42.7c-0.4-0.3-0.7-0.6-0.9-1c-0.3-0.4-0.4-0.9-0.6-1.4c-0.1-0.5-0.2-1-0.2-1.4c0-0.4,0.1-0.7,0.2-1
			c0.1-0.3,0.3-0.6,0.5-0.8c0.2-0.2,0.5-0.4,0.9-0.6c0.4-0.1,0.9-0.2,1.4-0.2c0.6,0,1,0.1,1.4,0.2c0.4,0.1,0.7,0.3,0.9,0.6
			c0.2,0.2,0.4,0.5,0.5,0.8c0.1,0.3,0.1,0.7,0.1,1c0,0.5-0.1,0.9-0.2,1.4c-0.1,0.5-0.3,1-0.6,1.4c-0.3,0.4-0.6,0.8-0.9,1
			c-0.4,0.3-0.8,0.4-1.3,0.4S6.7,43,6.3,42.7z M8.1,41.4c0.1-0.2,0.3-0.4,0.4-0.6c0.1-0.3,0.2-0.5,0.3-0.8s0.1-0.6,0.1-0.9
			c0-0.4-0.1-0.7-0.3-0.9c-0.2-0.2-0.5-0.3-0.9-0.3c-0.4,0-0.7,0.1-0.9,0.3c-0.2,0.2-0.3,0.5-0.3,0.9c0,0.3,0,0.6,0.1,0.9
			c0.1,0.3,0.1,0.6,0.3,0.8s0.2,0.5,0.4,0.6c0.1,0.2,0.3,0.2,0.4,0.2C7.8,41.6,7.9,41.5,8.1,41.4z"/>
		<path class="st2" d="M17.5,43h-1.7v-4h0l-1.3,1.8L13.1,39h0v4h-1.7v-6.5H13l1.4,1.9l1.4-1.9h1.6V43z"/>
		<path class="st2" d="M20.3,43h-1.7v-4.9h1.7v1.7c0.1-0.1,0.3-0.2,0.5-0.3c0.2-0.1,0.3-0.2,0.5-0.3c0.1-0.1,0.3-0.3,0.4-0.4
			c0.1-0.1,0.1-0.3,0.1-0.4c0-0.1,0-0.2-0.1-0.3c0-0.1-0.1-0.1-0.2-0.1c-0.1,0-0.2,0-0.2-0.1c-0.1,0-0.2,0-0.3,0h0h-2.6l0.4-1.5h2.7
			c0.4,0,0.7,0,1,0.1s0.5,0.2,0.7,0.4c0.2,0.2,0.3,0.4,0.4,0.6c0.1,0.2,0.1,0.4,0.1,0.7c0,0.3-0.1,0.5-0.2,0.8
			c-0.1,0.3-0.3,0.6-0.5,0.8s-0.6,0.6-1,0.8c-0.4,0.3-0.9,0.5-1.5,0.8V43z"/>
		<path class="st2" d="M29.2,43h-2.8c-0.5,0-0.9-0.1-1.2-0.2c-0.3-0.1-0.6-0.3-0.8-0.6c-0.2-0.2-0.4-0.5-0.4-0.9
			c-0.1-0.3-0.1-0.7-0.1-1.1c0-0.6,0.1-1.2,0.3-1.9c0.2-0.6,0.5-1.3,0.8-2h1.8c0,0.1-0.1,0.2-0.2,0.4c-0.1,0.3-0.3,0.6-0.4,0.8
			c-0.1,0.3-0.2,0.5-0.3,0.8c-0.1,0.3-0.2,0.6-0.3,0.9c-0.1,0.3-0.1,0.6-0.1,0.9c0,0.3,0,0.5,0.1,0.7c0.1,0.2,0.2,0.3,0.3,0.4
			c0.1,0.1,0.3,0.1,0.4,0.1s0.3,0,0.4,0h0.6v-5.1h1.7V43z"/>
		<path class="st2" d="M34.9,37.9H33V43h-1.7v-5.1h-1.8l0.4-1.5h4.6L34.9,37.9z"/>
		<path class="st2" d="M37,43h-1.7v-6.5H37V43z"/>
		<path class="st2" d="M43.4,43h-1.7v-1.9l-1.8-2.2h0V43h-1.7v-6.5h1.6l1.9,2.2v-2.2h1.7V43z"/>
		<path class="st2" d="M47.9,40h-0.6v-1.5h2.4V43h-1.4c-0.5,0-1.1-0.1-1.6-0.3c-0.5-0.2-0.9-0.4-1.3-0.8c-0.4-0.3-0.7-0.8-0.9-1.3
			c-0.2-0.5-0.3-1-0.3-1.6c0-0.3,0-0.7,0.1-1c0.1-0.3,0.2-0.6,0.4-0.8c0.2-0.2,0.5-0.4,0.8-0.6c0.3-0.1,0.7-0.2,1.2-0.2h2.4l0.4,1.5
			h-2.4c-0.1,0-0.3,0-0.4,0c-0.1,0-0.3,0.1-0.4,0.1c-0.1,0.1-0.3,0.2-0.3,0.4c-0.1,0.2-0.1,0.4-0.1,0.7c0,0.3,0,0.6,0.1,0.8
			s0.2,0.5,0.4,0.7c0.2,0.2,0.4,0.4,0.6,0.5c0.2,0.1,0.5,0.2,0.8,0.2V40z"/>
		<path class="st2" d="M55.4,40.8h-2.6v-1.3h2.6V40.8z"/>
		<path class="st2" d="M60.5,43h-1.7v-4.9h1.7v1.7c0.1-0.1,0.3-0.2,0.5-0.3c0.2-0.1,0.3-0.2,0.5-0.3c0.1-0.1,0.3-0.3,0.4-0.4
			c0.1-0.1,0.1-0.3,0.1-0.4c0-0.1,0-0.2-0.1-0.3c0-0.1-0.1-0.1-0.2-0.1c-0.1,0-0.2,0-0.2-0.1c-0.1,0-0.2,0-0.3,0h0h-2.6l0.4-1.5h2.7
			c0.4,0,0.7,0,1,0.1s0.5,0.2,0.7,0.4c0.2,0.2,0.3,0.4,0.4,0.6c0.1,0.2,0.1,0.4,0.1,0.7c0,0.3-0.1,0.5-0.2,0.8
			c-0.1,0.3-0.3,0.6-0.5,0.8s-0.6,0.6-1,0.8c-0.4,0.3-0.9,0.5-1.5,0.8V43z"/>
		<path class="st2" d="M65.7,42.7c-0.4-0.3-0.7-0.6-0.9-1c-0.3-0.4-0.4-0.9-0.6-1.4c-0.1-0.5-0.2-1-0.2-1.4c0-0.4,0.1-0.7,0.2-1
			c0.1-0.3,0.3-0.6,0.5-0.8c0.2-0.2,0.5-0.4,0.9-0.6c0.4-0.1,0.9-0.2,1.4-0.2c0.6,0,1,0.1,1.4,0.2c0.4,0.1,0.7,0.3,0.9,0.6
			c0.2,0.2,0.4,0.5,0.5,0.8c0.1,0.3,0.1,0.7,0.1,1c0,0.5-0.1,0.9-0.2,1.4c-0.1,0.5-0.3,1-0.6,1.4c-0.3,0.4-0.6,0.8-0.9,1
			c-0.4,0.3-0.8,0.4-1.3,0.4S66.1,43,65.7,42.7z M67.4,41.4c0.1-0.2,0.3-0.4,0.4-0.6c0.1-0.3,0.2-0.5,0.3-0.8s0.1-0.6,0.1-0.9
			c0-0.4-0.1-0.7-0.3-0.9c-0.2-0.2-0.5-0.3-0.9-0.3c-0.4,0-0.7,0.1-0.9,0.3c-0.2,0.2-0.3,0.5-0.3,0.9c0,0.3,0,0.6,0.1,0.9
			c0.1,0.3,0.1,0.6,0.3,0.8s0.2,0.5,0.4,0.6c0.1,0.2,0.3,0.2,0.4,0.2C67.1,41.6,67.3,41.5,67.4,41.4z"/>
		<path class="st2" d="M77,43h-1.9l-0.8-3.8h0L73.6,43h-1.9L70,36.5h1.9l0.8,4.1h0l0.8-4.1h1.7l0.9,4.1h0l0.7-4.1h1.9L77,43z"/>
		<path class="st2" d="M83.4,37.9h-2.6v1h2.4l-0.4,1.5h-2v1.2h2.8L83.2,43h-4.1v-6.5H83L83.4,37.9z"/>
		<path class="st2" d="M87.4,36.5c0.4,0,0.7,0,0.9,0.1s0.5,0.2,0.6,0.4c0.2,0.2,0.3,0.3,0.3,0.5c0.1,0.2,0.1,0.4,0.1,0.6
			c0,0.4-0.1,0.8-0.4,1.2c-0.2,0.3-0.6,0.6-1,0.9c0.5,0.9,1.1,1.9,1.9,2.8l-1.4,1c-0.5-0.6-1-1.2-1.4-1.9c-0.4-0.7-0.8-1.4-1.1-2.2
			c0,0,0.1-0.1,0.3-0.2c0.2-0.1,0.3-0.2,0.4-0.3s0.3-0.2,0.4-0.3c0.1-0.1,0.2-0.2,0.3-0.4c0.1-0.1,0.1-0.2,0.1-0.4
			c0-0.2-0.1-0.3-0.2-0.3c-0.1,0-0.3-0.1-0.6-0.1h-2.8l0.4-1.5H87.4z M85.9,43h-1.7v-4.9h1.7V43z"/>
		<path class="st2" d="M95.1,40.8h-2.6v-1.3h2.6V40.8z"/>
		<path class="st2" d="M102.1,43h-0.3c-0.5,0-1-0.1-1.5-0.3c-0.5-0.2-0.9-0.5-1.2-0.9c-0.3-0.4-0.6-0.8-0.8-1.3
			c-0.2-0.5-0.3-1-0.3-1.5c0-0.3,0-0.7,0.1-1c0.1-0.3,0.2-0.6,0.4-0.8s0.5-0.4,0.8-0.6c0.3-0.1,0.7-0.2,1.2-0.2h1.3l0.4,1.5h-1.3
			c-0.1,0-0.3,0-0.4,0c-0.1,0-0.3,0.1-0.4,0.1c-0.1,0.1-0.2,0.2-0.3,0.4c-0.1,0.2-0.1,0.4-0.1,0.7c0,0.3,0.1,0.6,0.2,0.9
			s0.3,0.5,0.5,0.8c0.2,0.2,0.5,0.4,0.8,0.5c0.3,0.1,0.7,0.2,1,0.2c0,0,0.1,0,0.1,0c0,0,0.1,0,0.1,0L102.1,43z"/>
		<path class="st2" d="M104.4,42.7c-0.4-0.3-0.7-0.6-0.9-1c-0.3-0.4-0.4-0.9-0.6-1.4c-0.1-0.5-0.2-1-0.2-1.4c0-0.4,0-0.7,0.2-1
			c0.1-0.3,0.3-0.6,0.5-0.8s0.5-0.4,0.9-0.6c0.4-0.1,0.9-0.2,1.4-0.2s1,0.1,1.4,0.2c0.4,0.1,0.7,0.3,0.9,0.6s0.4,0.5,0.5,0.8
			c0.1,0.3,0.1,0.7,0.1,1c0,0.5-0.1,0.9-0.2,1.4c-0.1,0.5-0.3,1-0.6,1.4c-0.2,0.4-0.6,0.8-0.9,1c-0.4,0.3-0.8,0.4-1.3,0.4
			C105.2,43.1,104.8,43,104.4,42.7z M106.2,41.4c0.1-0.2,0.3-0.4,0.4-0.6s0.2-0.5,0.3-0.8c0.1-0.3,0.1-0.6,0.1-0.9
			c0-0.4-0.1-0.7-0.3-0.9s-0.5-0.3-0.9-0.3s-0.7,0.1-0.9,0.3s-0.3,0.5-0.3,0.9c0,0.3,0,0.6,0.1,0.9c0.1,0.3,0.1,0.6,0.3,0.8
			c0.1,0.3,0.2,0.5,0.4,0.6c0.1,0.2,0.3,0.2,0.4,0.2S106,41.5,106.2,41.4z"/>
		<path class="st2" d="M115.5,43h-1.7v-4h0l-1.3,1.8l-1.3-1.8h0v4h-1.7v-6.5h1.6l1.4,1.9l1.4-1.9h1.6V43z"/>
		<path class="st2" d="M122.7,43H121v-4h0l-1.3,1.8l-1.3-1.8h0v4h-1.7v-6.5h1.6l1.4,1.9l1.4-1.9h1.6V43z"/>
		<path class="st2" d="M128.9,43h-2.8c-0.5,0-0.9-0.1-1.2-0.2c-0.3-0.1-0.6-0.3-0.8-0.6c-0.2-0.2-0.4-0.5-0.4-0.9
			c-0.1-0.3-0.1-0.7-0.1-1.1c0-0.6,0.1-1.2,0.3-1.9c0.2-0.6,0.5-1.3,0.8-2h1.8c0,0.1-0.1,0.2-0.2,0.4c-0.1,0.3-0.3,0.6-0.4,0.8
			c-0.1,0.3-0.2,0.5-0.3,0.8c-0.1,0.3-0.2,0.6-0.3,0.9c-0.1,0.3-0.1,0.6-0.1,0.9c0,0.3,0,0.5,0.1,0.7c0.1,0.2,0.2,0.3,0.3,0.4
			s0.3,0.1,0.4,0.1c0.1,0,0.3,0,0.4,0h0.6v-5.1h1.7V43z"/>
		<path class="st2" d="M135.2,43h-1.7v-1.9l-1.8-2.2h0V43H130v-6.5h1.6l1.9,2.2v-2.2h1.7V43z"/>
		<path class="st2" d="M138.1,43h-1.7v-6.5h1.7V43z"/>
		<path class="st2" d="M142.9,43h-0.3c-0.5,0-1-0.1-1.5-0.3c-0.5-0.2-0.9-0.5-1.2-0.9c-0.3-0.4-0.6-0.8-0.8-1.3
			c-0.2-0.5-0.3-1-0.3-1.5c0-0.3,0-0.7,0.1-1c0.1-0.3,0.2-0.6,0.4-0.8c0.2-0.2,0.5-0.4,0.8-0.6c0.3-0.1,0.7-0.2,1.2-0.2h1.3l0.4,1.5
			h-1.3c-0.1,0-0.3,0-0.4,0c-0.1,0-0.3,0.1-0.4,0.1s-0.3,0.2-0.3,0.4c-0.1,0.2-0.1,0.4-0.1,0.7c0,0.3,0.1,0.6,0.2,0.9
			c0.1,0.3,0.3,0.5,0.5,0.8s0.5,0.4,0.8,0.5c0.3,0.1,0.7,0.2,1,0.2c0,0,0.1,0,0.1,0c0,0,0.1,0,0.1,0L142.9,43z"/>
		<path class="st2" d="M148.8,43h-1.7v-2.1h-1.9c0,0.3,0.1,0.7,0.2,1c0.1,0.4,0.3,0.7,0.5,1l-1.4,0.9c-0.3-0.5-0.6-1-0.7-1.6
			s-0.3-1.1-0.3-1.7c0-0.6,0.1-1.2,0.3-1.7c0.2-0.5,0.5-1,0.9-1.4c0.4-0.4,0.9-0.7,1.4-0.9c0.5-0.1,1.1-0.2,1.8-0.2h0.8l0.4,1.5
			h-1.3c-0.4,0-0.8,0-1.1,0.1c-0.3,0.1-0.5,0.2-0.7,0.4c-0.2,0.1-0.3,0.3-0.4,0.4c-0.1,0.2-0.2,0.3-0.2,0.5l0,0h1.7v-1.3h1.7V43z"/>
		<path class="st2" d="M154.5,37.9h-1.8V43H151v-5.1h-1.8l0.4-1.5h4.6L154.5,37.9z"/>
		<path class="st2" d="M156.6,43h-1.7v-6.5h1.7V43z"/>
		<path class="st2" d="M159.1,42.7c-0.4-0.3-0.7-0.6-0.9-1c-0.2-0.4-0.4-0.9-0.6-1.4c-0.1-0.5-0.2-1-0.2-1.4c0-0.4,0.1-0.7,0.2-1
			c0.1-0.3,0.3-0.6,0.5-0.8s0.5-0.4,0.9-0.6c0.4-0.1,0.9-0.2,1.4-0.2s1,0.1,1.4,0.2c0.4,0.1,0.7,0.3,0.9,0.6s0.4,0.5,0.5,0.8
			c0.1,0.3,0.1,0.7,0.1,1c0,0.5-0.1,0.9-0.2,1.4c-0.1,0.5-0.3,1-0.6,1.4c-0.3,0.4-0.6,0.8-0.9,1c-0.4,0.3-0.8,0.4-1.3,0.4
			C159.9,43.1,159.5,43,159.1,42.7z M160.9,41.4c0.1-0.2,0.3-0.4,0.4-0.6s0.2-0.5,0.3-0.8c0.1-0.3,0.1-0.6,0.1-0.9
			c0-0.4-0.1-0.7-0.3-0.9c-0.2-0.2-0.5-0.3-0.9-0.3s-0.7,0.1-0.9,0.3c-0.2,0.2-0.3,0.5-0.3,0.9c0,0.3,0,0.6,0.1,0.9
			c0.1,0.3,0.1,0.6,0.3,0.8c0.1,0.3,0.2,0.5,0.4,0.6c0.1,0.2,0.3,0.2,0.4,0.2C160.6,41.6,160.7,41.5,160.9,41.4z"/>
		<path class="st2" d="M169.5,43h-1.7v-1.9l-1.8-2.2h0V43h-1.7v-6.5h1.6l1.9,2.2v-2.2h1.7V43z"/>
		<path class="st2" d="M174.2,37.9h-1.4c-0.2,0-0.4,0-0.5,0c-0.1,0-0.2,0.1-0.2,0.2c0,0.1,0,0.1,0.1,0.2c0,0.1,0.1,0.1,0.2,0.2l0,0
			l1.2,1.3c0.3,0.3,0.5,0.5,0.6,0.8c0.1,0.2,0.2,0.5,0.2,0.8c0,0.2,0,0.3-0.1,0.5s-0.1,0.3-0.3,0.5c-0.1,0.2-0.3,0.3-0.5,0.4
			c-0.2,0.1-0.5,0.1-0.9,0.1h-2l-0.4-1.5h1.6c0.2,0,0.4,0,0.5,0c0.1,0,0.2-0.1,0.2-0.2c0-0.1,0-0.1-0.1-0.2s-0.1-0.1-0.2-0.2l0,0
			l-1.2-1.3c-0.3-0.3-0.5-0.6-0.6-0.8c-0.1-0.2-0.2-0.5-0.2-0.8c0-0.2,0-0.3,0.1-0.5c0.1-0.2,0.1-0.3,0.3-0.5
			c0.1-0.2,0.3-0.3,0.5-0.4c0.2-0.1,0.5-0.1,0.9-0.1h1.8L174.2,37.9z"/>
	</g>
</g>
</svg>
