<?xml version="1.0" encoding="utf-8"?>
<!-- Generator: Adobe Illustrator 17.1.0, SVG Export Plug-In . SVG Version: 6.00 Build 0)  -->
<!DOCTYPE svg PUBLIC "-//W3C//DTD SVG 1.1//EN" "http://www.w3.org/Graphics/SVG/1.1/DTD/svg11.dtd">
<svg version="1.1" id="Layer_1" xmlns="http://www.w3.org/2000/svg" xmlns:xlink="http://www.w3.org/1999/xlink" x="0px" y="0px"
	 width="430px" height="123.9px" viewBox="-356.4 646.7 430 123.9" enable-background="new -356.4 646.7 430 123.9"
	 xml:space="preserve">
<g>
	<g>
		<path fill="#FFFFFF" d="M-242.1,719.9c-10.9,0-15.5-7.7-15.5-15.3v-26.5h-5.7v-10.3h5.7V652h13.4v15.8h9.5V678h-9.5v25.7
			c0,3.1,1.4,4.8,4.6,4.8h4.8v11.3h-7.3V719.9z"/>
		<path fill="#FFFFFF" d="M-195.6,719.9v-4.6c-3.6,3.6-7,5.1-13.2,5.1c-6.1,0-10.5-1.5-13.7-4.7c-2.9-3-4.4-7.3-4.4-12
			c0-8.5,5.9-15.5,18.3-15.5h12.6v-2.7c0-5.9-2.9-8.4-10-8.4c-5.1,0-7.5,1.2-10.3,4.4l-8.5-8.3c5.2-5.8,10.4-7.4,19.3-7.4
			c15,0,22.8,6.4,22.8,18.9V720L-195.6,719.9L-195.6,719.9z M-195.9,697.3h-10.6c-4.8,0-7.5,2.3-7.5,6.1c0,3.7,2.5,6.2,7.7,6.2
			c3.7,0,6.1-0.3,8.4-2.6c1.4-1.3,2-3.5,2-6.8L-195.9,697.3L-195.9,697.3z"/>
		<path fill="#FFFFFF" d="M-131.1,713.9c-3.3,3.5-8.7,6.6-16.7,6.6c-7.9,0-13.3-3.1-16.6-6.6c-4.8-5-6.1-11.1-6.1-20.9
			c0-9.7,1.2-15.7,6.1-20.8c3.3-3.5,8.6-6.6,16.6-6.6c7.9,0,13.4,3.1,16.7,6.6c4.8,5,6.1,11.1,6.1,20.8
			C-125,702.8-126.3,708.9-131.1,713.9z M-141.5,680.1c-1.5-1.5-3.6-2.4-6.3-2.4s-4.6,0.8-6.2,2.4c-2.8,2.8-3.1,7.4-3.1,13
			c0,5.6,0.3,10.3,3.1,13.1c1.5,1.5,3.5,2.4,6.2,2.4s4.7-0.8,6.3-2.4c2.8-2.8,3.1-7.5,3.1-13.1
			C-138.4,687.5-138.7,682.9-141.5,680.1z"/>
		<path fill="#FFFFFF" d="M-93.8,740.1c-8.2,0-13.9-1.6-19.4-7l8.3-8.4c3,2.9,6,4.1,10.5,4.1c8,0,10.8-5.7,10.8-11.1v-5.5
			c-3.5,3.9-7.5,5.3-12.8,5.3c-5.2,0-9.8-1.7-12.8-4.7c-5-5-5.4-11.9-5.4-21.3c0-9.4,0.4-16.1,5.4-21.2c3-3,7.6-4.7,12.9-4.7
			c5.7,0,9.4,1.5,13.1,5.7v-5h13v51.6C-70.2,730.8-79.4,740.1-93.8,740.1z M-92.4,677.7c-7.9,0-8.7,6.8-8.7,13.9
			c0,7.1,0.8,14,8.7,14c7.9,0,8.8-6.9,8.8-14C-83.6,684.5-84.5,677.7-92.4,677.7z"/>
		<path fill="#FFFFFF" d="M-40.1,719.9c-11,0-15.6-7.7-15.6-15.3v-57.9h13.4v57.1c0,3.2,1.3,4.8,4.7,4.8h5.1v11.3H-40.1z"/>
		<path fill="#FFFFFF" d="M5.7,719.9v-4.6c-3.6,3.6-7,5.1-13.2,5.1c-6.1,0-10.5-1.5-13.7-4.7c-2.9-3-4.4-7.3-4.4-12
			c0-8.5,5.9-15.5,18.3-15.5H5.4v-2.7c0-5.9-2.9-8.4-10-8.4c-5.1,0-7.5,1.2-10.3,4.4l-8.5-8.3c5.2-5.8,10.4-7.4,19.3-7.4
			c15,0,22.8,6.4,22.8,18.9V720L5.7,719.9L5.7,719.9z M5.3,697.3H-5.3c-4.8,0-7.5,2.3-7.5,6.1c0,3.7,2.5,6.2,7.7,6.2
			c3.7,0,6.1-0.3,8.4-2.6c1.4-1.3,2-3.5,2-6.8V697.3z"/>
		<path fill="#FFFFFF" d="M50.7,720.5c-8.4,0-16-0.9-22.8-7.7l8.7-8.7c4.4,4.4,10.2,5,14.3,5c4.6,0,9.5-1.5,9.5-5.6
			c0-2.7-1.4-4.5-5.7-4.9l-8.4-0.8c-9.7-0.9-15.6-5.1-15.6-15c0-11.1,9.8-17.1,20.7-17.1c8.3,0,15.3,1.4,20.5,6.3l-8.2,8.3
			c-3.1-2.8-7.8-3.6-12.4-3.6c-5.3,0-7.6,2.5-7.6,5.1c0,2,0.8,4.2,5.6,4.6l8.4,0.8c10.6,1,15.9,6.7,15.9,15.7
			C73.4,714.8,63.3,720.5,50.7,720.5z"/>
	</g>
</g>
<g>
	<g>
		<path fill="#FFFFFF" d="M-248.3,770v-1.9c-1.6,1.6-3,2.2-5.7,2.2c-2.7,0-4.4-0.6-5.7-1.9c-1.1-1.1-1.7-2.8-1.7-4.6
			c0-3.6,2.5-6.2,7.4-6.2h5.7v-1.5c0-2.7-1.4-4-4.7-4c-2.4,0-3.5,0.6-4.7,2.1l-2.8-2.7c2-2.4,4.1-3.1,7.7-3.1c5.9,0,8.8,2.5,8.8,7.4
			v14.3h-4.3V770z M-248.3,760.5h-5c-2.5,0-3.8,1.1-3.8,3.1c0,1.9,1.2,3,3.9,3c1.6,0,2.9-0.1,4-1.2c0.6-0.6,0.9-1.6,0.9-3.2
			L-248.3,760.5L-248.3,760.5z"/>
		<path fill="#FFFFFF" d="M-224.3,770v-13.1c0-3.3-1.9-4.8-4.3-4.8c-2.4,0-4.4,1.5-4.4,4.8V770h-4.3v-21.4h4.2v2.2
			c1.5-1.6,3.5-2.4,5.7-2.4s4,0.7,5.3,1.9c1.6,1.6,2.2,3.6,2.2,6V770H-224.3z"/>
		<path fill="#FFFFFF" d="M-207,770c-4,0-5.9-2.9-5.9-6v-11.8h-2.4v-3.3h2.4v-6.5h4.3v6.5h4.1v3.3h-4.1v11.6c0,1.6,0.8,2.5,2.4,2.5
			h1.8v3.7H-207z"/>
		<path fill="#FFFFFF" d="M-196,760.5c0,3.7,1.9,6,5.5,6c2.4,0,3.7-0.7,5.2-2.2l2.7,2.6c-2.2,2.2-4.3,3.3-8,3.3
			c-5.4,0-9.6-2.8-9.6-11c0-6.9,3.6-10.9,9.1-10.9c5.7,0,9.1,4.2,9.1,10.3v1.9H-196L-196,760.5z M-186.9,754.6
			c-0.7-1.6-2.2-2.7-4.2-2.7s-3.6,1.1-4.3,2.7c-0.4,1-0.5,1.6-0.6,2.9h9.6C-186.4,756.2-186.5,755.6-186.9,754.6z"/>
		<path fill="#FFFFFF" d="M-163.3,770v-13.1c0-3.3-1.9-4.8-4.3-4.8s-4.4,1.5-4.4,4.8V770h-4.3v-21.4h4.2v2.2
			c1.5-1.6,3.5-2.4,5.7-2.4s4,0.7,5.3,1.9c1.6,1.6,2.2,3.6,2.2,6V770H-163.3z"/>
		<path fill="#FFFFFF" d="M-139.3,770v-13.1c0-3.3-1.9-4.8-4.3-4.8s-4.4,1.5-4.4,4.8V770h-4.3v-21.4h4.2v2.2
			c1.5-1.6,3.5-2.4,5.7-2.4s4,0.7,5.3,1.9c1.6,1.6,2.2,3.6,2.2,6V770H-139.3z"/>
		<path fill="#FFFFFF" d="M-116.8,770v-1.9c-1.6,1.6-3,2.2-5.7,2.2s-4.4-0.6-5.7-1.9c-1.1-1.1-1.7-2.8-1.7-4.6
			c0-3.6,2.5-6.2,7.4-6.2h5.7v-1.5c0-2.7-1.4-4-4.7-4c-2.4,0-3.5,0.6-4.7,2.1l-2.8-2.7c2-2.4,4.1-3.1,7.7-3.1c5.9,0,8.8,2.5,8.8,7.4
			v14.3h-4.3V770z M-116.9,760.5h-5c-2.5,0-3.8,1.1-3.8,3.1c0,1.9,1.2,3,3.9,3c1.7,0,2.9-0.1,4-1.2c0.6-0.6,0.9-1.6,0.9-3.2V760.5z"
			/>
		<path fill="#FFFFFF" d="M-88.9,770.2c-3.5,0-6.5-0.6-9-3.1l2.8-2.8c1.7,1.8,4.1,2.2,6.2,2.2c2.6,0,4.7-0.9,4.7-3
			c0-1.4-0.8-2.4-2.9-2.5l-3.4-0.3c-4-0.3-6.3-2.2-6.3-5.9c0-4.2,3.6-6.6,8.1-6.6c3.2,0,6,0.7,7.9,2.4l-2.7,2.7
			c-1.3-1.1-3.3-1.6-5.3-1.6c-2.6,0-3.9,1.1-3.9,2.7c0,1.3,0.7,2.2,3,2.4l3.4,0.3c4,0.3,6.4,2.2,6.4,6
			C-80,767.9-83.8,770.2-88.9,770.2z"/>
		<path fill="#FFFFFF" d="M-60.4,767.7c-1.4,1.4-3.5,2.5-6.4,2.5s-5-1.1-6.4-2.5c-2-2.1-2.5-4.8-2.5-8.5c0-3.6,0.5-6.3,2.5-8.4
			c1.4-1.4,3.5-2.5,6.4-2.5s5,1.1,6.4,2.5c2,2.1,2.5,4.8,2.5,8.4C-57.9,762.9-58.4,765.6-60.4,767.7z M-63.6,753.4
			c-0.8-0.8-1.9-1.2-3.2-1.2c-1.3,0-2.3,0.4-3.1,1.2c-1.3,1.3-1.5,3.5-1.5,5.9c0,2.3,0.2,4.6,1.5,5.9c0.8,0.8,1.9,1.3,3.1,1.3
			c1.3,0,2.4-0.5,3.2-1.3c1.3-1.3,1.5-3.6,1.5-5.9C-62.2,756.9-62.3,754.7-63.6,753.4z"/>
		<path fill="#FFFFFF" d="M-46.3,770c-4.1,0-5.9-2.7-5.9-5.9v-24.2h4.3v23.9c0,1.6,0.6,2.5,2.3,2.5h1.9v3.7H-46.3z"/>
		<path fill="#FFFFFF" d="M-25.9,770v-2.2c-1.5,1.6-3.6,2.4-5.7,2.4c-2.2,0-4-0.7-5.3-1.9c-1.6-1.6-2.2-3.6-2.2-6v-13.7h4.3v13.1
			c0,3.3,1.9,4.8,4.3,4.8s4.4-1.5,4.4-4.8v-13.1h4.3V770H-25.9z"/>
		<path fill="#FFFFFF" d="M-8.5,770c-4,0-5.9-2.9-5.9-6v-11.8h-2.5v-3.3h2.5v-6.5h4.3v6.5H-6v3.3h-4v11.6c0,1.6,0.8,2.5,2.4,2.5h1.8
			v3.7H-8.5z"/>
		<path fill="#FFFFFF" d="M-0.5,744.3v-4.5h4.6v4.6h-4.6V744.3z M-0.4,770v-21.4h4.3V770H-0.4z"/>
		<path fill="#FFFFFF" d="M25.1,767.7c-1.4,1.4-3.5,2.5-6.4,2.5s-5-1.1-6.4-2.5c-2-2.1-2.5-4.8-2.5-8.5c0-3.6,0.5-6.3,2.5-8.4
			c1.4-1.4,3.5-2.5,6.4-2.5s5,1.1,6.4,2.5c2,2.1,2.5,4.8,2.5,8.4C27.6,762.9,27.1,765.6,25.1,767.7z M21.8,753.4
			c-0.8-0.8-1.9-1.2-3.2-1.2s-2.3,0.4-3.1,1.2c-1.3,1.3-1.5,3.5-1.5,5.9c0,2.3,0.2,4.6,1.5,5.9c0.8,0.8,1.9,1.3,3.1,1.3
			s2.4-0.5,3.2-1.3c1.3-1.3,1.5-3.6,1.5-5.9C23.3,756.9,23.1,754.7,21.8,753.4z"/>
		<path fill="#FFFFFF" d="M46.5,770v-13.1c0-3.3-1.9-4.8-4.3-4.8s-4.4,1.5-4.4,4.8V770h-4.3v-21.4h4.2v2.2c1.5-1.6,3.5-2.4,5.7-2.4
			s4,0.7,5.3,1.9c1.6,1.6,2.2,3.6,2.2,6V770H46.5z"/>
		<path fill="#FFFFFF" d="M64.4,770.2c-3.5,0-6.5-0.6-9-3.1l2.8-2.8c1.7,1.8,4.1,2.2,6.2,2.2c2.6,0,4.7-0.9,4.7-3
			c0-1.4-0.8-2.4-2.9-2.5l-3.4-0.3c-4-0.3-6.3-2.2-6.3-5.9c0-4.2,3.6-6.6,8.1-6.6c3.2,0,6,0.7,7.9,2.4l-2.7,2.7
			c-1.4-1.1-3.3-1.6-5.3-1.6c-2.6,0-3.9,1.1-3.9,2.7c0,1.3,0.7,2.2,3,2.4l3.4,0.3c4,0.3,6.4,2.2,6.4,6
			C73.3,767.9,69.5,770.2,64.4,770.2z"/>
	</g>
</g>
<path fill="#FFFFFF" d="M-281.5,677.6l0.1-0.1v-3.9c0,0-0.1,0-0.1-0.1V677.6z"/>
<path fill="#FFFFFF" d="M-281.5,692.6c0,0.1,0.1,0.1,0.1,0.2v-5.7c0,0-0.1,0-0.1-0.1V692.6z"/>
<path fill="#FFFFFF" d="M-281.5,683.8h0.1v-4.6c0-0.1-0.1-0.1-0.1-0.2V683.8z"/>
<path fill="#FFFFFF" d="M-281.5,723.8v36.3c0,5.6-4.6,10.2-10.2,10.2h0.1c5.7,0,10.2-4.6,10.2-10.2v-36.3H-281.5z"/>
<path fill="#FFFFFF" d="M-281.5,662.2v8.3h0.1v-8.3c0-5.6-4.6-10.2-10.2-10.2h-0.1C-286.1,652-281.5,656.6-281.5,662.2z"/>
<path fill="#FFFFFF" d="M-281.5,694.1V715h0.1v-21.1C-281.4,694.1-281.5,694.1-281.5,694.1z"/>
<path fill="#FFFFFF" d="M-281.5,760.2v-36.4c-0.7-0.1-1.5-0.3-2.3-0.6c-2.7-1-4.6-2.8-4.1-4c0.4-1.1,2.4-1.3,4.7-0.7
	c-1-0.8-1.5-1.7-1.2-2.4c0.3-0.8,1.4-1.1,2.9-1v-20.9c-0.6,0.5-1.9,0.5-3.3,0c-1.7-0.6-2.8-1.8-2.5-2.7c0.3-0.8,1.9-1,3.6-0.4
	c1,0.4,1.8,0.9,2.2,1.5v-5.5c-1.5-0.7-2.4-1.7-2.1-2.5c0.2-0.6,1.1-0.8,2.1-0.7v-4.8c-0.3-0.4-0.4-0.8-0.2-1.1
	c0-0.1,0.1-0.2,0.2-0.3v-4.1c-1.2-0.7-1.8-1.6-1.6-2.3c0.2-0.5,0.8-0.7,1.6-0.8v-8.3c0-5.6-4.6-10.2-10.2-10.2h-54.5
	c-5.7,0-10.2,4.6-10.2,10.2v43.9c0.8-0.5,2.4-0.5,4.2,0.1c2.2,0.8,3.6,2.3,3.3,3.3c-0.4,1-2.4,1.2-4.6,0.4c-1.3-0.5-2.3-1.2-2.8-1.9
	v4.2c0.2,0.1,0.3,0.1,0.5,0.2c2.2,0.8,3.7,2.3,3.3,3.3c-0.3,0.9-2,1.1-3.8,0.7v4.5c0.6,0.6,0.9,1.3,0.7,1.8
	c-0.1,0.3-0.4,0.5-0.7,0.7v23.1c1.5,0.9,2.4,2,2.1,2.9c0,0.1-0.1,0.1-0.1,0.2c0.7,0.1,1.4,0.2,2.2,0.5c1,0.4,1.8,0.8,2.4,1.4
	c1-0.1,2.2,0.1,3.5,0.5c0.5,0.2,0.9,0.4,1.3,0.6l0,0c0.4-1.1,2.7-1.3,5.2-0.4c2.4,0.9,4.1,2.5,3.7,3.7c-0.4,1.1-2.7,1.3-5.2,0.4
	c-0.5-0.2-0.9-0.4-1.4-0.6c-0.4,1.1-2.7,1.3-5.1,0.4c-1-0.4-1.9-0.9-2.5-1.4c-0.9,0.1-2.2-0.1-3.4-0.5c-1.1-0.4-2-1-2.7-1.6v7.8
	c0,5.6,4.6,10.2,10.2,10.2h54.5C-286.1,770.4-281.5,765.8-281.5,760.2z M-285.9,700.3c-0.3,0.8-1.9,1-3.6,0.4
	c-1.7-0.6-2.7-1.8-2.4-2.6c0.3-0.8,1.9-1,3.6-0.4C-286.7,698.3-285.6,699.4-285.9,700.3z M-334.1,723.8c1.4,0.5,2.3,1.5,2.1,2.3
	c-0.3,0.7-1.6,0.9-3.1,0.4c-1.4-0.5-2.3-1.5-2.1-2.3C-336.9,723.4-335.5,723.3-334.1,723.8z M-337.2,714.5c-1.4-0.5-2.2-1.5-2-2.2
	c0.3-0.7,1.6-0.9,2.9-0.4c1.4,0.5,2.2,1.5,2,2.2C-334.6,714.9-335.9,715-337.2,714.5z M-334.1,707.2c-1.3-0.5-2.2-1.5-1.9-2.2
	s1.5-0.9,2.9-0.4c1.3,0.5,2.2,1.5,1.9,2.2C-331.5,707.5-332.8,707.7-334.1,707.2z M-331.9,698.9c0.3-0.7,1.5-0.9,2.8-0.4
	c1.3,0.5,2.1,1.4,1.9,2.1c-0.3,0.7-1.5,0.9-2.8,0.4S-332.1,699.6-331.9,698.9z M-331,725.6c0.3-0.8,1.7-0.9,3.1-0.4s2.4,1.6,2.1,2.3
	c-0.3,0.8-1.7,0.9-3.1,0.4S-331.3,726.3-331,725.6z M-327.3,694.2c0.3-0.7,1.5-0.9,2.7-0.4c1.3,0.5,2.1,1.4,1.8,2.1
	c-0.3,0.7-1.5,0.9-2.7,0.4S-327.5,694.9-327.3,694.2z M-324.6,724c0.3-0.8,1.7-0.9,3.2-0.4s2.4,1.6,2.2,2.4
	c-0.3,0.8-1.7,0.9-3.2,0.4S-324.9,724.8-324.6,724z M-321.1,689.8c0.3-0.7,1.4-0.8,2.7-0.4c1.2,0.5,2,1.4,1.8,2
	c-0.2,0.7-1.4,0.8-2.7,0.4C-320.5,691.4-321.3,690.5-321.1,689.8z M-320.5,708.9c0.2-0.6,1.3-0.8,2.3-0.4c1.1,0.4,1.7,1.2,1.5,1.8
	c-0.2,0.6-1.2,0.8-2.3,0.4C-320,710.4-320.7,709.5-320.5,708.9z M-317.7,720.7c0.3-0.8,1.7-0.9,3.2-0.4c1.5,0.6,2.5,1.6,2.2,2.4
	c-0.3,0.8-1.7,0.9-3.2,0.4C-317,722.6-318,721.5-317.7,720.7z M-313.8,709c-1.1-0.4-1.8-1.2-1.5-1.8c0.2-0.6,1.3-0.8,2.4-0.4
	c1.1,0.4,1.8,1.2,1.5,1.8C-311.7,709.2-312.7,709.4-313.8,709z M-312.5,689.6c-1.2-0.4-2-1.3-1.7-2c0.2-0.7,1.4-0.8,2.6-0.4
	c1.2,0.4,2,1.3,1.7,2C-310.1,689.9-311.3,690.1-312.5,689.6z M-310.9,716.4c0.3-0.8,1.8-1,3.3-0.4c1.5,0.6,2.5,1.7,2.2,2.4
	c-0.3,0.8-1.8,1-3.3,0.4C-310.2,718.2-311.2,717.1-310.9,716.4z M-307.6,703.9c-1.1-0.4-1.8-1.3-1.6-1.9c0.2-0.6,1.3-0.8,2.4-0.4
	c1.1,0.4,1.8,1.2,1.6,1.9C-305.4,704.1-306.5,704.3-307.6,703.9z M-307.4,689.8c0.2-0.7,1.4-0.8,2.6-0.4c1.2,0.4,1.9,1.3,1.7,2
	c-0.2,0.7-1.4,0.8-2.5,0.4C-306.8,691.3-307.6,690.4-307.4,689.8z M-305.3,695.5c0.2-0.6,1.4-0.8,2.5-0.4c1.1,0.4,1.9,1.3,1.6,1.9
	c-0.2,0.6-1.3,0.8-2.5,0.4C-304.8,697-305.6,696.1-305.3,695.5z M-304.8,711.7c0.3-0.8,1.8-1,3.4-0.4c1.6,0.6,2.6,1.7,2.3,2.5
	c-0.3,0.8-1.8,1-3.4,0.4S-305.1,712.5-304.8,711.7z M-300,707.4c0.3-0.8,1.8-1,3.4-0.4c1.6,0.6,2.6,1.7,2.3,2.5
	c-0.3,0.8-1.8,1-3.4,0.4C-299.2,709.3-300.3,708.2-300,707.4z M-296.3,703.5c0.3-0.8,1.9-1,3.5-0.4c1.6,0.6,2.7,1.8,2.4,2.6
	c-0.3,0.8-1.9,1-3.5,0.4C-295.6,705.5-296.6,704.3-296.3,703.5z M-288.5,666.7c0.3-0.9,2.1-1.1,3.9-0.4c1.8,0.7,3,1.9,2.7,2.8
	c-0.3,0.9-2.1,1.1-3.9,0.4C-287.7,668.8-288.9,667.5-288.5,666.7z M-295.8,665.3c0.3-0.9,2.1-1.1,3.9-0.4c1.8,0.7,3.1,2,2.7,2.9
	c-0.3,0.9-2.1,1.1-3.9,0.4S-296.1,666.2-295.8,665.3z M-302.5,665.8c0.3-0.9,2.1-1.1,4-0.4c1.9,0.7,3.1,2,2.8,2.9
	c-0.3,0.9-2.1,1.1-4,0.4C-301.6,668-302.8,666.7-302.5,665.8z M-308.9,667.3c0.3-0.9,2.2-1.1,4.1-0.4c1.9,0.7,3.2,2,2.8,2.9
	c-0.3,0.9-2.2,1.1-4.1,0.4S-309.3,668.2-308.9,667.3z M-315.6,669.7c0.3-0.9,2.2-1.1,4.1-0.4c1.9,0.7,3.2,2,2.9,3
	c-0.3,0.9-2.2,1.1-4.1,0.4C-314.7,671.9-316,670.6-315.6,669.7z M-321.9,672.8c0.3-0.9,2.2-1.1,4.2-0.4c2,0.7,3.3,2.1,2.9,3
	c-0.3,0.9-2.2,1.1-4.2,0.4C-320.9,675.1-322.2,673.8-321.9,672.8z M-327.8,676.6c0.4-1,2.2-1.1,4.2-0.4s3.3,2.1,3,3.1
	c-0.3,0.9-2.2,1.1-4.2,0.4C-326.8,678.9-328.2,677.5-327.8,676.6z M-333.4,680.9c0.4-1,2.3-1.1,4.3-0.4c2,0.8,3.4,2.1,3,3.1
	s-2.3,1.1-4.3,0.4C-332.4,683.2-333.8,681.8-333.4,680.9z M-338.7,685.6c0.4-1,2.3-1.1,4.4-0.4c2.1,0.8,3.4,2.2,3.1,3.1
	c-0.4,1-2.3,1.1-4.4,0.4S-339,686.6-338.7,685.6z M-345.3,704.3c-0.4,1-2.4,1.2-4.6,0.4c-2.1-0.8-3.6-2.3-3.2-3.3s2.4-1.2,4.6-0.4
	S-344.9,703.2-345.3,704.3z M-340.8,698.8c-0.4,1-2.4,1.2-4.5,0.4c-2.1-0.8-3.5-2.2-3.2-3.2c0.4-1,2.4-1.2,4.5-0.4
	C-341.9,696.4-340.4,697.8-340.8,698.8z M-343.7,690.7c0.4-1,2.3-1.2,4.4-0.4c2.1,0.8,3.5,2.2,3.1,3.2c-0.4,1-2.3,1.2-4.4,0.4
	S-344.1,691.6-343.7,690.7z M-340,719.2c0.3-0.7,1.6-0.9,3-0.4s2.3,1.5,2,2.2s-1.6,0.9-3,0.4C-339.4,721-340.3,720-340,719.2z
	 M-329.3,754.6c-0.4,1.1-2.8,1.3-5.2,0.4c-2.5-0.9-4.1-2.6-3.7-3.7c0.4-1.1,2.8-1.3,5.2-0.4C-330.5,751.8-328.9,753.4-329.3,754.6z
	 M-322.1,752.2c-0.4,1.1-2.8,1.3-5.3,0.4c-2.5-0.9-4.2-2.6-3.8-3.7c0.4-1.1,2.8-1.3,5.3-0.4S-321.7,751.1-322.1,752.2z
	 M-314.8,748.9c-0.4,1.2-2.8,1.3-5.4,0.4c-2.5-0.9-4.2-2.6-3.8-3.8s2.8-1.3,5.4-0.4C-316.1,746-314.4,747.7-314.8,748.9z
	 M-307.7,744.9c-0.4,1.2-2.9,1.3-5.4,0.4c-2.6-1-4.3-2.7-3.9-3.8c0.4-1.2,2.9-1.3,5.4-0.4C-309,742-307.2,743.7-307.7,744.9z
	 M-300.7,740.4c-0.4,1.2-2.9,1.3-5.5,0.4c-2.6-1-4.3-2.7-3.9-3.9s2.9-1.3,5.5-0.4C-302,737.5-300.2,739.2-300.7,740.4z
	 M-294.1,735.7c-0.4,1.2-2.9,1.3-5.6,0.4c-2.6-1-4.4-2.7-4-3.9c0.4-1.2,2.9-1.4,5.6-0.4C-295.4,732.8-293.6,734.5-294.1,735.7z
	 M-288,731.1c-0.4,1.2-3,1.4-5.6,0.4c-2.7-1-4.5-2.8-4-3.9c0.4-1.2,3-1.4,5.6-0.4C-289.4,728.1-287.6,729.9-288,731.1z
	 M-288.3,727.1c-2.7-1-4.5-2.8-4.1-4c0.4-1.2,3-1.4,5.7-0.4s4.5,2.8,4.1,4S-285.6,728.1-288.3,727.1z"/>
</svg>
