<?xml version="1.0" encoding="utf-8"?>
<!-- Generator: Adobe Illustrator 20.0.0, SVG Export Plug-In . SVG Version: 6.00 Build 0)  -->
<svg version="1.1" id="Ebene_1" xmlns="http://www.w3.org/2000/svg" xmlns:xlink="http://www.w3.org/1999/xlink" x="0px" y="0px"
	 viewBox="0 0 213 55" style="enable-background:new 0 0 213 55;" xml:space="preserve">
<style type="text/css">
	.st0{fill:#991A81;}
</style>
<g id="Ebene_1_1_">
	<g>
		<g>
			<path class="st0" d="M84.8,45.1H85c1.3-0.1,1.8-0.1,2.4-0.1c1.3,0,2.1,0.2,2.7,0.6c0.8,0.5,1.3,1.4,1.3,2.5c0,1.9-1.4,3-3.8,3
				c-0.2,0-0.4,0-0.7,0v3.3h-2.1V45.1z M86.9,49.3c0.1,0,0.3,0,0.4,0h0.1c1.4,0,1.9-0.4,1.9-1.3c0-0.9-0.5-1.3-1.6-1.3h-0.1
				c-0.2,0-0.5,0-0.7,0C86.9,46.7,86.9,49.3,86.9,49.3z"/>
			<path class="st0" d="M101.7,49.6c0,3-1.8,4.9-4.6,4.9c-2.8,0-4.5-1.8-4.5-4.7c0-3.1,1.8-5,4.6-5C99.9,44.8,101.7,46.7,101.7,49.6
				z M94.8,49.7c0,1.9,0.8,3.1,2.3,3.1c1.4,0,2.3-1.1,2.3-3.1c0-1.9-0.8-3.1-2.3-3.1C95.7,46.6,94.8,47.8,94.8,49.7z"/>
			<path class="st0" d="M104.8,45c0.5,2.3,0.5,2.7,1.1,5.2c0.3,1.1,0.4,1.6,0.4,2v1l0.1-1c0-0.3,0.2-1.2,0.4-2
				c0.2-0.6,0.3-1,0.3-1.1l0.5-2.1l0.4-1.9h2.5l0.2,1.1l0.6,2.9l0.5,2.1c0.2,0.7,0.2,1.1,0.3,2c0.1-1,0.1-1.5,0.3-2l0.5-2.1l0.7-3.1
				l0.2-1h2.1c-0.8,3.4-1.4,5.6-2.6,9.3h-2.7l-0.6-2.5c-0.7-3.1-0.8-3.6-0.9-5.4c-0.2,2.1-0.2,2.5-1,5.4l-0.6,2.4h-2.7l-0.4-1.4
				c-0.4-1.5-1-3.8-1.4-5.4l-0.6-2.5L104.8,45L104.8,45z"/>
			<path class="st0" d="M117.9,45h5.8v1.8H120v1.8h3.6v1.8H120v2h3.8v1.8h-5.9V45z"/>
			<path class="st0" d="M125.8,45.1h0.2c1.1-0.1,1.7-0.1,2.4-0.1c1.4,0,2.1,0.1,2.8,0.5c0.8,0.5,1.3,1.4,1.3,2.5
				c0,1.2-0.5,1.9-1.6,2.5c0.6,0.9,2,2.8,2.8,3.7l0.1,0.1h-2.6c-0.5-0.7-1.8-2.5-2.3-3.3l-0.1-0.2c-0.5,0-0.5,0-0.9,0v3.5h-2.1
				L125.8,45.1L125.8,45.1z M127.9,49.2c0.2,0,0.5,0,0.6,0c1.3,0,1.9-0.4,1.9-1.3c0-0.9-0.6-1.3-1.8-1.3c-0.2,0-0.3,0-0.5,0h-0.2
				C127.9,46.6,127.9,49.2,127.9,49.2z"/>
			<path class="st0" d="M141.4,46.9h-2.9V45h7.8v1.9h-2.9v7.5h-2.1L141.4,46.9L141.4,46.9z"/>
			<path class="st0" d="M156.3,49.6c0,3-1.8,4.9-4.6,4.9s-4.5-1.8-4.5-4.7c0-3.1,1.8-5,4.6-5C154.5,44.8,156.3,46.7,156.3,49.6z
				 M149.4,49.7c0,1.9,0.8,3.1,2.3,3.1c1.4,0,2.3-1.1,2.3-3.1c0-1.9-0.8-3.1-2.3-3.1C150.3,46.6,149.4,47.8,149.4,49.7z"/>
			<path class="st0" d="M169.8,53.9c-1,0.4-1.8,0.6-2.9,0.6c-3.1,0-5-1.8-5-4.7c0-3,2.1-4.9,5.2-4.9c1,0,1.7,0.2,2.7,0.6v2.1
				c-0.9-0.5-1.5-0.7-2.4-0.7c-2,0-3.2,1.1-3.2,3c0,1.8,1.2,2.9,3.1,2.9c0.9,0,1.6-0.2,2.5-0.7L169.8,53.9L169.8,53.9z"/>
			<path class="st0" d="M171.8,45.1h0.2c1.1-0.1,1.7-0.1,2.4-0.1c1.4,0,2.1,0.1,2.8,0.5c0.8,0.5,1.3,1.4,1.3,2.5
				c0,1.2-0.5,1.9-1.6,2.5c0.6,0.9,2,2.8,2.8,3.7l0.1,0.1h-2.6c-0.5-0.7-1.8-2.5-2.3-3.3l-0.1-0.2c-0.5,0-0.5,0-0.9,0v3.5h-2.1
				L171.8,45.1L171.8,45.1z M173.8,49.2c0.2,0,0.5,0,0.6,0c1.3,0,1.9-0.4,1.9-1.3c0-0.9-0.6-1.3-1.8-1.3c-0.2,0-0.3,0-0.5,0h-0.2
				V49.2z"/>
			<path class="st0" d="M180.8,45h5.8v1.8h-3.7v1.8h3.6v1.8h-3.6v2h3.8v1.8h-5.9L180.8,45L180.8,45z"/>
			<path class="st0" d="M188,54.4c0.8-2.4,2.2-5.9,3.7-9.3h2.1c1.3,3.1,2.2,5.6,3.4,9.3H195l-0.8-2.5H191l-0.8,2.5H188z M193.7,50.1
				l-0.5-1.6c-0.2-0.7-0.3-1-0.4-1.6c-0.1,0.4-0.1,0.4-0.1,0.6c-0.1,0.2-0.2,0.4-0.4,1.1l-0.5,1.5H193.7z"/>
			<path class="st0" d="M199.7,46.9h-2.9V45h7.8v1.9h-2.9v7.5h-2.1L199.7,46.9L199.7,46.9z"/>
			<path class="st0" d="M206.4,45h5.8v1.8h-3.7v1.8h3.6v1.8h-3.6v2h3.8v1.8h-5.9L206.4,45L206.4,45z"/>
		</g>
		<g>
			<g>
				<g>
					<path class="st0" d="M212,36.6h-3.9c-0.4,0-0.7-0.3-0.7-0.7c-0.1-2.4-1-4.6-2.4-6.4c-0.2-0.3-0.5-0.6-0.8-0.9
						c-1.5-1.7-3.6-2.7-6-2.7h-2.5v10c0,0.4-0.4,0.8-0.8,0.8h-4.1c-0.4,0-0.8-0.4-0.8-0.8V12.4c0-0.4,0.4-0.8,0.8-0.8h4.1
						c0.4,0,0.8,0.3,0.8,0.8v7.9h2.5c4.4,0,8-3.5,8.1-8c0-0.4,0.3-0.7,0.7-0.7h4.2c0.4,0,0.8,0.3,0.8,0.7c-0.1,4.4-2.2,8.3-5.4,10.7
						c0.9,0.7,1.7,1.4,2.3,2.3c2.4,2.9,4,6.5,4.1,10.5c0,0.4-0.3,0.7-0.7,0.8H212L212,36.6z"/>
				</g>
				<g>
					<path class="st0" d="M167.9,17.5c-2.1-0.8-4.5-1.3-6.9-1.3s-4.8,0.5-6.9,1.3v18.4c0,0.4-0.4,0.8-0.8,0.8h-4.1
						c-0.4,0-0.8-0.4-0.8-0.8V14.3c0-0.2,0.1-0.5,0.3-0.6c3.6-2,7.8-3.2,12.2-3.2s8.6,1.2,12.2,3.2c0.2,0.1,0.3,0.4,0.3,0.6v21.5
						c0,0.4-0.4,0.8-0.8,0.8h-4.1c-0.4,0-0.8-0.4-0.8-0.8V17.5H167.9z"/>
				</g>
				<g>
					<path class="st0" d="M179,35.8V12.4c0-0.4,0.4-0.8,0.8-0.8h4.1c0.4,0,0.8,0.4,0.8,0.8v23.5c0,0.4-0.4,0.8-0.8,0.8h-4.1
						C179.3,36.6,179,36.3,179,35.8L179,35.8z"/>
				</g>
				<g>
					<path class="st0" d="M108.7,11.6h5.4c0.4,0,0.7,0.4,0.7,0.8c0,0.1,0,0.2,0,0.3l-9,23.4c-0.1,0.3-0.4,0.5-0.7,0.5h-6.8
						c-0.3,0-0.6-0.2-0.7-0.5L89,12.6c0-0.1,0-0.1,0-0.2c0-0.4,0.3-0.7,0.7-0.8h5.5c0.3,0,0.6,0.2,0.7,0.5l5.8,18.9l6.3-18.9
						C108.1,11.8,108.4,11.6,108.7,11.6L108.7,11.6z"/>
				</g>
				<g>
					<path class="st0" d="M85.9,36.6H66.1c-0.3,0-0.6-0.2-0.7-0.4c-2.1-3.6-3.2-7.7-3.2-12.1s1.2-8.5,3.2-12.1
						c0.1-0.3,0.4-0.4,0.7-0.4h18.8c0.4,0,0.7,0.3,0.7,0.7v4.2c0,0.4-0.3,0.7-0.7,0.7H69.1c-0.5,1.3-0.9,2.7-1.1,4.1h15.8
						c0.4,0,0.7,0.3,0.7,0.7v4.1c0,0.4-0.3,0.8-0.7,0.8H68.1c0.2,1.4,0.6,2.8,1.1,4.1H86c0.4,0,0.7,0.3,0.7,0.7v4.1
						C86.6,36.3,86.3,36.6,85.9,36.6L85.9,36.6z"/>
				</g>
				<g>
					<path class="st0" d="M137.5,17.5c-2.1-0.8-4.5-1.3-6.9-1.3s-4.8,0.5-6.9,1.3v13.3c2.1,0.8,4.5,1.3,6.9,1.3s4.7-0.5,6.9-1.3
						V17.5L137.5,17.5z M130.6,37.7c-4.4,0-8.5-1.1-12.1-3.2c-0.2-0.1-0.4-0.4-0.4-0.6V14.3c0-0.3,0.2-0.5,0.4-0.6
						c3.6-2,7.7-3.2,12.2-3.2c4.4,0,8.6,1.2,12.2,3.2c0.2,0.1,0.3,0.4,0.4,0.6v19.5c0,0.3-0.2,0.5-0.4,0.6
						C139.1,36.5,135,37.7,130.6,37.7L130.6,37.7z"/>
				</g>
			</g>
			<g id="KNull_14_">
				<path class="st0" d="M23.5,5.8c-10,0-18.1,8.1-18.1,18.1S13.5,42,23.5,42c5.5,0,10.4-2.4,13.7-6.2c0,0-18.7,0-19,0
					c-0.2,0-0.4-0.1-0.6-0.1c-4.3-2.2-7.2-6.6-7.2-11.7s2.9-9.6,7.2-11.7c0.2-0.1,0.4-0.1,0.6-0.1c1.7,0,9.5,0,10.6,0
					c0.3,0,0.5,0.1,0.6,0.1c1.9,0.9,3.5,2.3,4.7,4c0.4,0.5,0,1.2-0.6,1.2c-0.5,0-14.3,0-14.3,0c-2.1,1.4-3.5,3.8-3.5,6.5
					s1.4,5.1,3.5,6.5c0,0,25.3,0,25.8,0s0.9,0.5,0.7,1c-3.1,9.3-11.9,16-22.2,16C10.5,47.4,0,36.9,0,23.9C0,11,10.5,0.4,23.5,0.4
					S47,10.9,47,23.9c0,0.7,0,1.3-0.1,2c0,0.4-0.4,0.7-0.7,0.7c-4,0-24.9,0-25.2,0c-0.3,0-0.6-0.2-0.7-0.4c-0.3-0.7-0.5-1.4-0.5-2.2
					c0-0.8,0.2-1.6,0.5-2.2c0.1-0.3,0.4-0.4,0.7-0.4c0.4,0,20.4,0,20.4,0C40.1,12.5,32.6,5.8,23.5,5.8z"/>
			</g>
		</g>
	</g>
</g>
</svg>
