<svg class="sx-svg-logo" version="1.1" viewBox="0 0 637.75 124.33" xmlns="http://www.w3.org/2000/svg">
 <defs><style>.sx-svg-logo { fill:#005092; }</style></defs>
 <path transform="translate(-117.78 -309.91)" d="m358.83 407.43h-8.55v7.47h8.35v1.24h-8.35v9.45h8.55v1.24h-9.89v-20.64h9.89z"/>
 <path transform="translate(-117.78 -309.91)" d="m366.27 420.22l-4.7-6h1.63l3.89 5.05 3.83-5.05h1.63l-4.6 6 5.08 6.63h-1.6l-4.34-5.67-4.33 5.67h-1.65z"/>
 <path transform="translate(-117.78 -309.91)" d="M385,415.54v1.62a8.15,8.15,0,0,0-1.83-1.45,5.64,5.64,0,0,0-2.57-.63,4.87,4.87,0,0,0-3.87,1.77,5.62,5.62,0,0,0-1.36,3.75,5.35,5.35,0,0,0,1.48,3.81,5,5,0,0,0,3.72,1.62,6.07,6.07,0,0,0,4.6-2.28v1.66a7.11,7.11,0,0,1-4.6,1.77,6.42,6.42,0,0,1-3.63-1.07,6.29,6.29,0,0,1-2.34-2.84,6.8,6.8,0,0,1-.51-2.63,6.73,6.73,0,0,1,1.92-4.84,6.09,6.09,0,0,1,4.6-1.86A7,7,0,0,1,385,415.54Z"/>
 <path transform="translate(-117.78 -309.91)" d="M399.6,420.69H388.74a6.28,6.28,0,0,0,.7,2.84,4.85,4.85,0,0,0,1.79,1.8,4.78,4.78,0,0,0,2.45.68,4.62,4.62,0,0,0,3.19-1.21,7.56,7.56,0,0,0,1.29-1.68l1.06.62a6.14,6.14,0,0,1-5.61,3.43,5.76,5.76,0,0,1-4.73-2.21,6.73,6.73,0,0,1-1.47-4.37,6.88,6.88,0,0,1,1.77-4.8,6,6,0,0,1,8.2-.51A6.9,6.9,0,0,1,399.6,420.69Zm-1.41-1.18a6.27,6.27,0,0,0-.92-2.37,4.7,4.7,0,0,0-1.65-1.5,4.27,4.27,0,0,0-2.09-.56,4.51,4.51,0,0,0-3,1.18,5.11,5.11,0,0,0-1.71,3.25Z"/>
 <path transform="translate(-117.78 -309.91)" d="M404.22,404.24v22.6H403v-22.6Z"/>
 <path transform="translate(-117.78 -309.91)" d="m409.6 404.24v22.6h-1.24v-22.6z"/>
 <path transform="translate(-117.78 -309.91)" d="M425.24,420.69H414.38a6.28,6.28,0,0,0,.7,2.84,4.85,4.85,0,0,0,1.79,1.8,4.78,4.78,0,0,0,2.45.68,4.62,4.62,0,0,0,3.19-1.21,7.55,7.55,0,0,0,1.29-1.68l1.06.62a6.14,6.14,0,0,1-5.61,3.43A5.76,5.76,0,0,1,414.5,425a6.73,6.73,0,0,1-1.47-4.37,6.88,6.88,0,0,1,1.77-4.8,6,6,0,0,1,8.2-.51A6.91,6.91,0,0,1,425.24,420.69Zm-1.41-1.18a6.27,6.27,0,0,0-.92-2.37,4.7,4.7,0,0,0-1.65-1.5,4.27,4.27,0,0,0-2.09-.56,4.51,4.51,0,0,0-3,1.18,5.11,5.11,0,0,0-1.71,3.25Z"/>
 <path transform="translate(-117.78 -309.91)" d="M428.59,414.2h1.24v2a5.43,5.43,0,0,1,1.13-1.33,4.2,4.2,0,0,1,2.71-.91,4.33,4.33,0,0,1,2.66.85,3.55,3.55,0,0,1,1.33,2.3,9.84,9.84,0,0,1,.14,1.8v8h-1.24v-8a5.36,5.36,0,0,0-.46-2.57,2.75,2.75,0,0,0-2.59-1.22,3.25,3.25,0,0,0-3,1.72,4.34,4.34,0,0,0-.56,1.65,13.82,13.82,0,0,0-.11,1.82v6.58h-1.24Z"/>
 <path transform="translate(-117.78 -309.91)" d="M452.06,415.54v1.62a8.16,8.16,0,0,0-1.83-1.45,5.64,5.64,0,0,0-2.57-.63,4.86,4.86,0,0,0-3.87,1.77,5.61,5.61,0,0,0-1.36,3.75,5.36,5.36,0,0,0,1.48,3.81,5,5,0,0,0,3.72,1.62,6.07,6.07,0,0,0,4.6-2.28v1.66a7.11,7.11,0,0,1-4.6,1.77A6.43,6.43,0,0,1,444,426.1a6.29,6.29,0,0,1-2.34-2.84,7,7,0,0,1,1.41-7.47,6.09,6.09,0,0,1,4.6-1.86A7,7,0,0,1,452.06,415.54Z"/>
 <path transform="translate(-117.78 -309.91)" d="M466.68,420.69H455.82a6.29,6.29,0,0,0,.7,2.84,4.86,4.86,0,0,0,1.79,1.8,4.79,4.79,0,0,0,2.45.68,4.61,4.61,0,0,0,3.19-1.21,7.54,7.54,0,0,0,1.29-1.68l1.06.62a6.14,6.14,0,0,1-5.61,3.43,5.76,5.76,0,0,1-4.73-2.21,6.73,6.73,0,0,1-1.47-4.37,6.88,6.88,0,0,1,1.77-4.8,6,6,0,0,1,8.2-.51A6.91,6.91,0,0,1,466.68,420.69Zm-1.41-1.18a6.27,6.27,0,0,0-.92-2.37,4.69,4.69,0,0,0-1.65-1.5,4.27,4.27,0,0,0-2.09-.56,4.51,4.51,0,0,0-3,1.18,5.11,5.11,0,0,0-1.71,3.25Z"/>
 <path transform="translate(-117.78 -309.91)" d="M478.65,408.87a1.1,1.1,0,0,1,.8.33,1,1,0,0,1,.33.79,1.1,1.1,0,0,1-.33.8,1.08,1.08,0,0,1-.79.33,1.09,1.09,0,0,1-.8-.33,1.11,1.11,0,0,1-.33-.82,1,1,0,0,1,.33-.77A1.08,1.08,0,0,1,478.65,408.87Zm.62,5.32v12.65H478V414.2Z"/>
 <path transform="translate(-117.78 -309.91)" d="M483.44,414.2h1.24v2a5.43,5.43,0,0,1,1.13-1.33,4.2,4.2,0,0,1,2.71-.91,4.33,4.33,0,0,1,2.66.85,3.55,3.55,0,0,1,1.33,2.3,9.84,9.84,0,0,1,.14,1.8v8h-1.24v-8a5.36,5.36,0,0,0-.45-2.57,2.75,2.75,0,0,0-2.59-1.22,3.25,3.25,0,0,0-3,1.72,4.32,4.32,0,0,0-.56,1.65,13.79,13.79,0,0,0-.11,1.82v6.58h-1.24Z"/>
 <path transform="translate(-117.78 -309.91)" d="M521.91,408.58v1.84a9.26,9.26,0,0,0-7-3.27,8.77,8.77,0,0,0-4.51,1.27,9.43,9.43,0,0,0-3.69,3.83,9.1,9.1,0,0,0-1.1,4.37,8.69,8.69,0,0,0,3.24,6.93,9.25,9.25,0,0,0,6.08,2.37,9.72,9.72,0,0,0,5.17-1.57,9.2,9.2,0,0,0,1.79-1.56v1.82a11,11,0,0,1-6.87,2.57,10.39,10.39,0,0,1-4.75-1.16,10.81,10.81,0,0,1-4.77-4.51,10.07,10.07,0,0,1-1.27-4.95,10.31,10.31,0,0,1,1.32-5.05,10.66,10.66,0,0,1,4.15-4.21,10.51,10.51,0,0,1,5.26-1.41,10.23,10.23,0,0,1,4.89,1.23A11.47,11.47,0,0,1,521.91,408.58Z"/>
 <path transform="translate(-117.78 -309.91)" d="M531.29,413.92a6.45,6.45,0,0,1,4.81,2,6.7,6.7,0,0,1-.51,9.64,6.55,6.55,0,0,1-4.34,1.57,6.69,6.69,0,0,1-5.85-3.57,6.85,6.85,0,0,1-.73-3.16,6.26,6.26,0,0,1,2-4.67A6.44,6.44,0,0,1,531.29,413.92Zm-.06,1.15a5,5,0,0,0-4,1.92,5.35,5.35,0,0,0-1.24,3.46,5.46,5.46,0,0,0,1.6,4A5,5,0,0,0,531.2,426a5.22,5.22,0,0,0,4.21-2,5.3,5.3,0,0,0,1.21-3.51,5.37,5.37,0,0,0-5.39-5.46Z"/>
 <path transform="translate(-117.78 -309.91)" d="M541.29,414.2h1.24v2a5.41,5.41,0,0,1,1.13-1.33,4.2,4.2,0,0,1,2.71-.91,4.32,4.32,0,0,1,2.66.85,3.55,3.55,0,0,1,1.33,2.3,9.93,9.93,0,0,1,.14,1.8v8h-1.24v-8a5.36,5.36,0,0,0-.46-2.57,2.75,2.75,0,0,0-2.59-1.22,3.25,3.25,0,0,0-3,1.72,4.32,4.32,0,0,0-.56,1.65,13.82,13.82,0,0,0-.11,1.82v6.58h-1.24Z"/>
 <path transform="translate(-117.78 -309.91)" d="M554.64,414.2h1.24v2a5.45,5.45,0,0,1,1.13-1.33,4.2,4.2,0,0,1,2.71-.91,4.33,4.33,0,0,1,2.66.85,3.56,3.56,0,0,1,1.33,2.3,9.94,9.94,0,0,1,.13,1.8v8h-1.24v-8a5.36,5.36,0,0,0-.45-2.57,2.76,2.76,0,0,0-2.59-1.22,3.25,3.25,0,0,0-3,1.72,4.31,4.31,0,0,0-.56,1.65,13.82,13.82,0,0,0-.11,1.82v6.58h-1.24Z"/>
 <path transform="translate(-117.78 -309.91)" d="M579.46,420.69H568.6a6.27,6.27,0,0,0,.7,2.84,4.86,4.86,0,0,0,1.79,1.8,4.79,4.79,0,0,0,2.45.68,4.62,4.62,0,0,0,3.19-1.21,7.55,7.55,0,0,0,1.29-1.68l1.06.62a6.14,6.14,0,0,1-5.61,3.43,5.76,5.76,0,0,1-4.73-2.21,6.73,6.73,0,0,1-1.47-4.37,6.88,6.88,0,0,1,1.77-4.8,6,6,0,0,1,8.2-.51A6.91,6.91,0,0,1,579.46,420.69ZM578,419.5a6.24,6.24,0,0,0-.92-2.37,4.69,4.69,0,0,0-1.65-1.5,4.27,4.27,0,0,0-2.09-.56,4.51,4.51,0,0,0-3,1.18,5.11,5.11,0,0,0-1.71,3.25Z"/>
 <path transform="translate(-117.78 -309.91)" d="M593,415.54v1.62a8.18,8.18,0,0,0-1.83-1.45,5.65,5.65,0,0,0-2.57-.63,4.87,4.87,0,0,0-3.87,1.77,5.62,5.62,0,0,0-1.36,3.75,5.36,5.36,0,0,0,1.48,3.81,5,5,0,0,0,3.72,1.62,6.07,6.07,0,0,0,4.6-2.28v1.66a7.1,7.1,0,0,1-4.6,1.77,6.42,6.42,0,0,1-3.63-1.07,6.31,6.31,0,0,1-2.35-2.84,6.82,6.82,0,0,1-.51-2.63,6.72,6.72,0,0,1,1.92-4.84,6.09,6.09,0,0,1,4.6-1.86A7,7,0,0,1,593,415.54Z"/>
 <path transform="translate(-117.78 -309.91)" d="m597.91 415.33v11.51h-1.24v-11.51h-1.41v-1.13h1.41v-4.52h1.24v4.52h2.21v1.13z"/>
 <path transform="translate(-117.78 -309.91)" d="M603.16,408.87a1.1,1.1,0,0,1,.8.33,1,1,0,0,1,.33.79,1.1,1.1,0,0,1-.33.8,1.08,1.08,0,0,1-.79.33,1.1,1.1,0,0,1-.8-.33A1.11,1.11,0,0,1,602,410a1,1,0,0,1,.33-.77A1.08,1.08,0,0,1,603.16,408.87Zm.62,5.32v12.65h-1.24V414.2Z"/>
 <path transform="translate(-117.78 -309.91)" d="m607.65 414.2 4.35 10.21l4.37-10.21h1.41l-5.78 13.4-5.82-13.4z"/>
 <path transform="translate(-117.78 -309.91)" d="M620.85,408.87a1.1,1.1,0,0,1,.8.33,1,1,0,0,1,.33.79,1.1,1.1,0,0,1-.33.8,1.08,1.08,0,0,1-.79.33,1.1,1.1,0,0,1-.8-.33,1.11,1.11,0,0,1-.33-.82,1,1,0,0,1,.33-.77A1.08,1.08,0,0,1,620.85,408.87Zm.62,5.32v12.65h-1.24V414.2Z"/>
 <path transform="translate(-117.78 -309.91)" d="m627.07 415.33v11.51h-1.24v-11.51h-1.41v-1.13h1.41v-4.52h1.24v4.52h2.21v1.13z"/>
 <path transform="translate(-117.78 -309.91)" d="M636.69,427.05l-6-12.86h1.45l5.17,11.22L642,414.2h1.44l-8.47,20h-1.41Z"/>
 <path transform="translate(-117.78 -309.91)" d="M664.66,408.84l-1,.83a7,7,0,0,0-1.15-1.44,4.24,4.24,0,0,0-2.92-1.07,3.59,3.59,0,0,0-2.94,1.32,4,4,0,0,0-1,2.6,3.1,3.1,0,0,0,1.09,2.39,12.39,12.39,0,0,0,2.59,1.53,38.24,38.24,0,0,1,4.12,2.15,4.49,4.49,0,0,1,2.19,3.95,5.69,5.69,0,0,1-2.22,4.6,6.53,6.53,0,0,1-4.23,1.5,6,6,0,0,1-4.81-2.19,8.21,8.21,0,0,1-1.29-2.25l1.15-.54a9.84,9.84,0,0,0,1.15,2,4.53,4.53,0,0,0,1.8,1.35,5.13,5.13,0,0,0,2,.41,5,5,0,0,0,3.57-1.42,4.52,4.52,0,0,0,1.5-3.39,3.58,3.58,0,0,0-2-3.19q-.69-.39-3.84-2a10.09,10.09,0,0,1-3.21-2.18,4.21,4.21,0,0,1-.91-2.74,4.87,4.87,0,0,1,1.71-3.89,5.33,5.33,0,0,1,3.59-1.27,5.68,5.68,0,0,1,3.65,1.29A5.76,5.76,0,0,1,664.66,408.84Z"/>
 <path transform="translate(-117.78 -309.91)" d="M675.3,413.92a6.46,6.46,0,0,1,4.81,2,6.7,6.7,0,0,1-.52,9.64,6.55,6.55,0,0,1-4.34,1.57,6.69,6.69,0,0,1-5.86-3.57,6.84,6.84,0,0,1-.72-3.16,6.26,6.26,0,0,1,2-4.67A6.44,6.44,0,0,1,675.3,413.92Zm-.06,1.15a5,5,0,0,0-4,1.92,5.35,5.35,0,0,0-1.24,3.46,5.45,5.45,0,0,0,1.6,4,4.94,4.94,0,0,0,3.64,1.53,5.21,5.21,0,0,0,4.21-2,5.29,5.29,0,0,0,1.21-3.51,5.37,5.37,0,0,0-5.38-5.46Z"/>
 <path transform="translate(-117.78 -309.91)" d="m686.56 404.24v22.6h-1.24v-22.6z"/>
 <path transform="translate(-117.78 -309.91)" d="M691.94,414.2v7.53a6.5,6.5,0,0,0,.42,2.78,2.53,2.53,0,0,0,1.23,1.12,3.73,3.73,0,0,0,1.66.38,3.48,3.48,0,0,0,2.22-.74,2.74,2.74,0,0,0,1-1.94,12.94,12.94,0,0,0,.08-1.6V414.2h1.24v8a7.23,7.23,0,0,1-.3,2.42,3.82,3.82,0,0,1-1.87,2,5.06,5.06,0,0,1-2.37.56,4.5,4.5,0,0,1-3.63-1.56,3.45,3.45,0,0,1-.8-1.81,11.25,11.25,0,0,1-.11-1.63v-8Z"/>
 <path transform="translate(-117.78 -309.91)" d="m705.32 415.33v11.51h-1.24v-11.51h-1.41v-1.13h1.41v-4.52h1.24v4.52h2.21v1.13z"/>
 <path transform="translate(-117.78 -309.91)" d="M710.57,408.87a1.1,1.1,0,0,1,.8.33,1,1,0,0,1,.33.79,1.1,1.1,0,0,1-.33.8,1.08,1.08,0,0,1-.79.33,1.1,1.1,0,0,1-.8-.33,1.11,1.11,0,0,1-.33-.82,1,1,0,0,1,.33-.77A1.08,1.08,0,0,1,710.57,408.87Zm.62,5.32v12.65H710V414.2Z"/>
 <path transform="translate(-117.78 -309.91)" d="M721.12,413.92a6.46,6.46,0,0,1,4.81,2,6.7,6.7,0,0,1-.52,9.64,6.55,6.55,0,0,1-4.34,1.57,6.69,6.69,0,0,1-5.86-3.57,6.84,6.84,0,0,1-.72-3.16,6.26,6.26,0,0,1,2-4.67A6.44,6.44,0,0,1,721.12,413.92Zm-.06,1.15a5,5,0,0,0-4,1.92,5.35,5.35,0,0,0-1.24,3.46,5.45,5.45,0,0,0,1.6,4A4.94,4.94,0,0,0,721,426a5.21,5.21,0,0,0,4.2-2,5.29,5.29,0,0,0,1.21-3.51,5.37,5.37,0,0,0-5.38-5.46Z"/>
 <path transform="translate(-117.78 -309.91)" d="M731.12,414.2h1.24v2a5.45,5.45,0,0,1,1.13-1.33,4.2,4.2,0,0,1,2.71-.91,4.33,4.33,0,0,1,2.66.85,3.56,3.56,0,0,1,1.33,2.3,10,10,0,0,1,.13,1.8v8h-1.24v-8a5.36,5.36,0,0,0-.45-2.57,2.76,2.76,0,0,0-2.59-1.22,3.25,3.25,0,0,0-3,1.72,4.31,4.31,0,0,0-.56,1.65,13.82,13.82,0,0,0-.11,1.82v6.58h-1.24Z"/>
 <path transform="translate(-117.78 -309.91)" d="M751.06,416l-1.06.53a2.38,2.38,0,0,0-2.16-1.44,2.18,2.18,0,0,0-1.71.77,1.87,1.87,0,0,0-.47,1.25,1.64,1.64,0,0,0,.7,1.36,6.93,6.93,0,0,0,1.79.88,10.92,10.92,0,0,1,2.4,1.15,3.16,3.16,0,0,1,1.26,2.69,3.73,3.73,0,0,1-1.37,3.06,4.2,4.2,0,0,1-2.74.94,4.25,4.25,0,0,1-3.46-1.59,5.07,5.07,0,0,1-.88-1.75l1.2-.38q.91,2.57,3.13,2.57a2.69,2.69,0,0,0,2.19-1,2.78,2.78,0,0,0,.65-1.8,2.29,2.29,0,0,0-.65-1.66,5.49,5.49,0,0,0-1.79-.92,10.66,10.66,0,0,1-2.71-1.33,2.56,2.56,0,0,1-1-2.15,3,3,0,0,1,1.16-2.45,3.53,3.53,0,0,1,2.24-.79,3.68,3.68,0,0,1,2.44.92A4.09,4.09,0,0,1,751.06,416Z"/>
 <path transform="translate(-117.78 -309.91)" d="M256.72,343.45h15.34v14.76h9.76V343.45h15.34v43.81H281.82V372h-9.76v15.22H256.72Z"/>
 <path transform="translate(-117.78 -309.91)" d="M343.35,343.51v25.91c0,12.78-8,18.59-20.28,18.59s-20.28-5.81-20.28-18.59V343.51h15.92v24.4c0,3.43.11,6.45,4.36,6.45s4.36-3,4.36-6.45v-24.4Z"/>
 <path transform="translate(-117.78 -309.91)" d="M348.93,343.45h18.53c8.49,0,17.14,2,17.14,12.14,0,3.83-1.92,7.61-5.75,8.83v.35c4.76,1.69,7.78,5.17,7.78,10.4,0,9-8.37,12.09-16,12.09H348.93Zm16.21,16.85c2.32,0,4.94-.23,4.94-3.25,0-3.25-3-3-5.29-3h-1.1v6.27Zm-1.45,16.5h1.8c2.61,0,6.39-.06,6.39-3.66s-4.07-3.6-6.62-3.6h-1.57Z"/>
 <path transform="translate(-117.78 -309.91)" d="M391.12,343.45h29.46v12H407.15v4.19h12.26V371H407.15v4.3H421v12H391.12Z"/>
 <path transform="translate(-117.78 -309.91)" d="M426.79,343.45H446c9.87,0,18.24,4.18,18.24,15.23,0,6.62-2.55,9.41-8.48,11.38v.35a11.29,11.29,0,0,1,2.67,2.62L468,387.26H449.63l-7-14.06h-.29v14.06H426.79Zm15.57,19.41h1.1c2.62,0,5.23-.41,5.23-3.66s-2.38-3.78-5.11-3.78h-1.22Z"/>
 <path transform="translate(-117.78 -309.91)" d="M500.2,371.62l.81.64c2.85,2.21,6.28,4,9.93,4,1.57,0,4.07-.64,4.07-2.61s-2.09-2.15-3.55-2.44l-3.19-.58c-6.22-1.11-11.45-4.76-11.45-11.62,0-10.4,9.47-16.21,19-16.21a26.09,26.09,0,0,1,13.89,3.84l-4.3,11.21a16.53,16.53,0,0,0-9.24-3.31c-1.39,0-3.43.52-3.43,2.32,0,1.62,2,1.86,3.2,2.15l3.6.81c6.74,1.51,11.62,5.12,11.62,12.55,0,10.46-9.53,15.63-19,15.63a39.48,39.48,0,0,1-16.85-4Z"/>
 <path transform="translate(-117.78 -309.91)" d="M576.41,343.5v25.92c0,12.78-8,18.59-20.28,18.59s-20.28-5.81-20.28-18.59V343.5h15.92v24.4c0,3.43.12,6.45,4.36,6.45s4.36-3,4.36-6.45V343.5Z"/>
 <path transform="translate(-117.78 -309.91)" d="M582.22,343.5h15.34v14.76h9.76V343.5h15.34v43.81H607.32V372.08h-9.76v15.22H582.22Z"/>
 <path transform="translate(-117.78 -309.91)" d="M629,343.5h15.28l14.29,24.29H659a65.59,65.59,0,0,1-1.34-11.16V343.5h15.22v43.81H657.7l-14-23h-.46a51.51,51.51,0,0,1,1,8.77v14.24H629Z"/>
 <path transform="translate(-117.78 -309.91)" d="M679.26,343.5h29.46v12H695.3v4.18h12.26V371H695.3v4.3h13.89v12H679.26Z"/>
 <path transform="translate(-117.78 -309.91)" d="M714.34,343.5h19.23c9.88,0,18.24,4.18,18.24,15.22,0,6.62-2.56,9.41-8.48,11.39v.35a11.19,11.19,0,0,1,2.67,2.62l9.53,14.24H737.18l-7-14.06h-.29v14.06H714.34Zm15.57,19.41H731c2.62,0,5.23-.41,5.23-3.66s-2.38-3.78-5.11-3.78h-1.22Z"/>
 <path transform="translate(-117.78 -309.91)" d="m477.51 354.24h6.92v8.35h8.35v6.92h-8.35v8.4h-6.92v-8.4h-8.35v-6.92h8.35z"/>
 <polygon points="41.52 27.23 57.68 27.23 57.68 47.27 70.23 47.27 70.23 27.23 86.39 27.23 86.39 83.51 70.23 83.51 70.23 63.47 57.68 63.47 57.68 83.51 41.52 83.51"/>
 <polygon points="119.27 40.4 95.92 0 31.96 0 0 55.37 5.14 64.25 35.61 64.25 35.62 46.41 25.45 46.41 42.17 17.62 85.72 17.62 98.9 40.4"/>
 <polygon points="122.18 46.41 127.92 55.37 95.95 110.78 31.99 110.78 8.58 70.23 28.91 70.23 42.15 93.05 85.75 93.05 102.53 64.25 92.37 64.25 92.37 46.41"/>
</svg>
