<?xml version="1.0" encoding="utf-8"?>
<!-- Generator: Adobe Illustrator 20.1.0, SVG Export Plug-In . SVG Version: 6.00 Build 0)  -->
<svg version="1.1" id="Layer_1" xmlns="http://www.w3.org/2000/svg" xmlns:xlink="http://www.w3.org/1999/xlink" x="0px" y="0px"
	 viewBox="0 0 358.1 134.4" style="enable-background:new 0 0 358.1 134.4;" xml:space="preserve">
<style type="text/css">
	.st0{fill:#FFFFFF;}
</style>
<path class="st0" d="M85.2,83.6H41.8V23.5h15.6V72h27.9V83.6 M117.3,78.8v4.8h14.6v-31c0-1.8-0.2-3.6-0.7-5.1c-0.4-1.5-1-2.8-1.9-4
	c-0.8-1.1-1.9-2.2-3.2-3c-1.3-0.9-2.8-1.6-4.9-2.2c-2.1-0.6-4.7-1-7.8-1.3c-3.1-0.3-6.7-0.3-10.6,0c-3.9,0.3-8.2,1-12.4,2v10.8h1.3
	c2.6-1,5.2-1.8,7.2-2.4c2-0.5,3.5-0.7,5-0.8c3-0.2,6.4,0.2,8.4,0.8c1,0.3,1.7,0.6,2.3,1c0.6,0.4,1,0.8,1.4,1.3
	c0.4,0.5,0.6,1,0.8,1.7c0.2,0.7,0.3,1.6,0.3,2.4c-4.6,0.2-9.3,0.7-12.7,1.2c-3.4,0.5-5.5,1-7.3,1.6c-1.8,0.6-3.2,1.3-4.4,2
	c-1.2,0.7-2.2,1.5-3,2.4c-0.8,0.9-1.5,1.8-2,2.9c-0.5,1-0.9,2.2-1.2,3.4c-0.2,1.2-0.3,2.5-0.3,3.9c0.1,2.6,0.8,5.3,2.2,7.4
	c0.6,1,1.4,1.9,2.3,2.7c0.9,0.8,1.9,1.5,3,2c1.2,0.6,2.5,1,3.9,1.3c1.4,0.3,3,0.5,4.6,0.5c1.6,0,3.1-0.3,4.6-0.6
	c1.5-0.4,2.9-0.8,4.7-1.7C113.5,81.7,115.5,80.3,117.3,78.8 M117.3,71.8c-0.9,0.8-1.9,1.4-3,1.9c-3.4,1.7-7.4,1.5-9.8,0.8
	c-0.8-0.3-1.4-0.6-1.9-1.1c-0.7-0.5-1-1-1.2-1.7c-0.1-0.4-0.2-0.9-0.2-1.4c-0.1-1.1,0-2.3,0.3-3.1c0.3-0.7,0.6-1.3,1.5-2
	c0.4-0.3,0.8-0.6,1.3-0.8c0.5-0.3,1.2-0.5,2-0.7c0.8-0.2,1.9-0.4,3.8-0.7c1.9-0.3,4.6-0.6,7.3-0.8V71.8 M156.1,83.6V38.2h-14.6v45.4
	H156.1 M156.6,31.7v-11H141v11H156.6 M199.1,52.3V38.4c-0.5,0-0.9-0.1-1.3-0.1c-0.4,0-0.6,0-1.2,0c-0.6,0-1.5,0-2.7,0.1
	c-1.2,0.1-2.7,0.4-4.2,0.9c-2.9,1-6,3-9.1,5.6v-6.7H166v45.4h14.6V53.4c2.9-0.8,5.7-1.5,8.6-1.7c2.9-0.2,5.7,0.2,8.6,0.6H199.1
	 M247.5,83.6V20.8H233V40c-2.3-1.2-4.7-2.1-7-2.6c-2.3-0.5-4.4-0.6-6.5-0.4c-2.1,0.2-4.1,0.7-6,1.4c-1.9,0.7-3.6,1.8-5.2,3
	c-1.5,1.3-2.9,2.8-4.1,4.6c-1.2,1.8-2.2,3.9-2.9,6.1c-0.7,2.2-1.2,4.6-1.3,7.3c-0.1,2.7,0.1,5.7,0.6,8.3c0.5,2.7,1.1,5,2,7
	c0.9,2,2,3.6,3.2,5c1.2,1.3,2.6,2.4,4.2,3.2c1.6,0.8,3.5,1.4,5.4,1.8c3.8,0.7,7.4,0.4,11.3-1.7c2-1,4.2-2.5,6.2-4.2v4.7H247.5
	 M233,71.3c-0.9,0.6-1.9,1.2-2.9,1.6c-2.2,0.9-4.3,1.3-6.2,1.1c-1.8-0.2-3.7-0.6-5-1.6c-0.6-0.4-1.1-1-1.6-1.6
	c-0.5-0.7-0.9-1.4-1.2-2.4c-0.3-1-0.6-2.2-0.8-3.6c-0.2-1.4-0.2-3-0.2-4.5c0.1-1.5,0.3-2.9,0.5-4.2c0.3-1.2,0.7-2.3,1.1-3.2
	c0.4-0.9,1-1.7,1.5-2.3c0.6-0.6,1.2-1.2,1.9-1.6c0.7-0.4,1.6-0.8,2.6-1.1c1-0.3,2.2-0.5,3.4-0.5c2.3-0.1,4.6,0.4,6.7,1.2V71.3
	 M302.8,74.4c0.2,2.3-0.6,4.5-2.7,6.9c-2.2,2.3-5.7,4.7-11.6,7.2c-5.9,2.4-14.2,4.8-26,7.1c-11.7,2.3-26.9,4.5-44.7,6.2
	c-17.8,1.7-38.2,3.1-61,3.7c-22.9,0.6-48.2,0.5-66.9,0.1c-18.7-0.4-30.7-1.2-42.2-2c-11.5-0.8-22.6-1.7-33.6-2.8l3.7,2.4
	c6.4,0.9,12.7,1.7,24.3,2.7c11.6,1.1,28.5,2.4,49.1,3.3c20.6,0.9,45,1.3,69.3,0.9c24.3-0.3,48.6-1.4,70.3-3.1
	c21.7-1.7,40.9-4.1,55.9-6.5c15.1-2.5,26.1-5.1,34.2-7.4c8.1-2.4,13.3-4.5,16.7-6.6c3.4-2.1,5-4,5.6-6.1c0.6-2,0.2-4.2-1.9-6.4
	c-2.1-2.2-5.8-4.5-12.3-6.9c-6.5-2.4-15.8-5-26-7.1c-10.2-2.1-21.3-3.8-29.8-4.8c-8.6-1.1-14.6-1.6-20.7-1.7
	c3.8,0.4,7.5,1.1,13.4,2.4c5.9,1.4,14,3.4,20.1,5.4c6,2,10,4,12.6,6.1C301.2,69.7,302.5,72.1,302.8,74.4 M252.6,25.7v-4.4h1.6v-0.6
	h-3.9v0.6h1.6v4.4H252.6z M255.5,25.7v-4.2l1.4,4.2h0.6l1.4-4.2v4.2h0.6v-5h-0.9l-1.2,3.5c-0.1,0.3-0.2,0.6-0.3,0.8
	c-0.1-0.2-0.1-0.4-0.2-0.7l-1.2-3.5h-1v5H255.5z"/>
</svg>
