<svg width="490" height="197" viewBox="0 0 490 197" xmlns="http://www.w3.org/2000/svg"><title>Artboard</title><g fill-rule="nonzero" fill="none"><g fill="#01426A"><path d="M187.9 146c0-1-.9-1.8-1.9-1.8h-16.6c-1 0-1.9-.8-1.9-1.9v-9.9c0-1 .9-1.9 1.9-1.9h59.4c1 0 1.9.8 1.9 1.9v9.9c0 1-.9 1.9-1.9 1.9h-16.6c-1 0-1.9.8-1.9 1.8v35.7c0 1-.9 1.8-1.9 1.8h-18.6c-1 0-1.9-.8-1.9-1.8V146zM239.3 132.5c0-1 .9-1.9 1.9-1.9h18.6c1 0 1.9.8 1.9 1.9v49.3c0 1-.9 1.8-1.9 1.8h-18.6c-1 0-1.9-.8-1.9-1.8v-49.3zM318.7 162.8h18.1c1 0 1.6.6 1.5 1.6-.6 4.5-3.1 20.4-32.2 20.4-29 0-36.9-12.1-36.9-27.8 0-16.7 10.8-27.8 36.9-27.8 31.3 0 32 17.4 32.1 19.3.1 1-.6 1.7-1.7 1.7h-17.9c-1.3 0-1.7-1-1.7-1-.8-2.5-3-6.8-11.4-6.8-11.5 0-13.9 5.4-13.9 14.6 0 8.4 2.5 14.6 13.9 14.6 7 0 10.1-3.3 11.5-7.8.1.1.5-1 1.7-1M400.9 159.3c5.7 1.9 10.5 6.7 11.3 12.9.2 2.1.4 6.5 1.4 9.5 0 0 .9 1.9-.9 1.9h-18.6c-1 0-2.1-.8-2.4-1.8 0 0-1-3.6-1.3-6.4-.6-5-1.2-10.3-10.1-10.3h-10c-1 0-1.9.8-1.9 1.8v14.8c0 1-.9 1.8-1.9 1.8h-18.6c-1 0-1.9-.8-1.9-1.8v-49.3c0-1 .9-1.8 1.9-1.8H395.5c5.8.3 17 2.2 17 14 0 10.8-4.6 12.3-11.5 14.2-.1 0-1 .2-.1.5zm-32.5-7.4c0 1 .9 1.8 1.9 1.8h9.7c4.7 0 10-.5 10-5.3 0-3.3-1.4-5.3-9.4-5.3h-10.4c-1 0-1.9.8-1.9 1.8v7h.1zM446.2 166.1h9.9s2.6 0 .2 1.2c-13 6.3-17.8 14.6-17.8 14.6-.4.9-1.6 1.7-2.6 1.7h-18.7c-1 0-1.5-.8-1.1-1.7l25.2-49.7c.5-.9 1.7-1.7 2.7-1.7h18.1c1 0 2.3.8 2.7 1.7l24.9 49.7c.5.9 0 1.7-1.1 1.7h-19.5c-1 0-2.2-.8-2.6-1.7l-12.7-31.8c-.9-2.4-1.6 0-1.6 0l-6.6 15.3c.1-.1-.3.7.6.7"/></g><g fill="#919388"><path d="M124.5 165c0-9.6-8-17.4-17.9-17.4-9.9 0-17.9 7.8-17.9 17.4 0 9.6 8 17.4 17.9 17.4 9.8 0 17.9-7.8 17.9-17.4"/><path d="M81.2 169.7c-1.8-3.5-2.7-7.5-2.6-11.7 0-4.5 3.6-19.2 22.3-19.1 7 0 13.3 3 17.6 7.7 0 0 1.3 1.5-.7.5-3.3-1.9-7.1-3.1-11.2-3.1-11.9 0-21.5 9.4-21.5 20.9 0 6.9 3.5 13.1 8.8 16.9 0 0 1.5 1.1-.5.4-3.6-1.9-6.8-4.6-9.3-7.8 0 0-.3-.5-.9-.2l-8.3 4.6c-.5.3-1.2.1-1.5-.4l-1.1-1.9c-.3-.5-.1-1.1.4-1.4l8.2-4.6c.1.1.5-.2.3-.8"/><path d="M87.7 138.7c4-2.1 8.4-3.3 13.2-3.3 13.4 0 24.5 9.4 26.8 21.8 0 0 1.1 4 .2 10.6-.9 6.4-4.7 11.8-10.1 15 0 0-1.8 1.3.3.6 4.6-1.9 8.5-5 11.5-8.8 0 0 .3-.5 1-.2l9.4 4.6c.5.3 1.2 0 1.4-.5l1-1.9c.3-.5.1-1.1-.5-1.4l-9.1-4.5c-.7-.4-.3-1-.3-1 1.7-3.6 2.7-7.5 2.7-11.7 0-4-.9-7.9-2.5-11.3-.3-.7.4-1.1.4-1.1l9-5.2c.5-.3.7-.9.4-1.4l-1.1-1.9c-.3-.5-1-.7-1.5-.4l-8.9 5.1c-.9.6-1.5-.3-1.5-.3-5.2-6.7-13.4-11.1-22.7-11.1-7.7 0-14.6 3-19.7 7.8.1 0-1.5 1.6.6.5M110.2 186.2v9.8c0 .6-.5 1-1.1 1h-2.3c-.6 0-1.1-.5-1.1-1v-9.8c0-.3.3-.3.3-.3 1.5.2 3 .1 3.7 0 .1 0 .5-.1.5.3M78.7 143.3s1 .4.4 1.1c-1 1.3-1.2 1.8-1.6 2.3 0 0-.4.6-1.2.2L51 134.3c-1-.5-.2-1.1-.2-1.1 1.5-.8 1.8-.9 3.2-1.7 0 0 .5-.3 1.2.1l23.5 11.7M12.9 111.5c-.4 1.3-.5 1.3-.9 2.7 0 0-.3.9-1.1.4l-9.8-5c-.8-.4-.6-1.1-.6-1.1.2-.6.3-1.2.9-2.7.3-.9 1.1-.3 1.1-.3l9.8 4.9c0-.2.8.2.6 1.1M39.3 134C42 91.8 67.9 52.6 89.7 28.9c.3-.5-.4 0-.4 0-2.7 2-7.6 5.8-9.7 7.4 0 0-.5.4-.8.8-12.5 14.9-45.6 58-49 100.2 0 0-.1.7.6.5 2.6-.6 5.3-1.6 8.2-2.8.1-.1.7-.3.7-1"/><path d="M24.8 138.6c-.6 0-1.1.1-1.6.1-1.7 0-3.3-.3-4.6-.7-.5-.2-.4-.6-.4-.6 2.4-26.5 25.5-62.9 36-78.1.1-.2.8-1 .8-1l.3-.3c1.9-1.9 6.8-6.4 9.5-8.9 0 0 .4-.3.2.1-15.2 21.2-37.6 56.7-39.7 88.9 0 0 0 .4-.5.5M14.2 133.3c2.5-16.5 15.4-40.5 24.6-56.5.3-.7-.2-.3-.2-.3-16.9 19.8-26.8 43.4-25.8 53.3.2 1.3.6 2.5 1.1 3.5-.1 0 .1.5.3 0M115.2 23.7c3.6-4.1 6.8-7.4 9.5-10 .4-.5-.3-.4-.3-.4-2.7.4-5.5 1-7.6 1.7 0 0-.4.1-.6.4-.4.3-.7.7-1.1 1.1 0 0-.4.4-.4.8v6.1c0 .1 0 .8.5.3M106.2 18.5V2.8c0-1.1 1-1.5 1-1.5s.4-.2 1.9-.7c0 0 1.3-.4 1.3.9v124.4c-.2.6-.8.5-.8.5-.8 0-1.3-.1-2.6 0-.8.1-.8-.8-.8-.8V82.2c0-1-.7-.3-.7-.3-1.9 2.2-3.7 4.2-5.7 6.4-.9 1-.6-.4-.6-.4 1.7-6.4 4-12.6 6.7-18.5.3-.7.3-1.3.3-1.3V61c0-1.9-.9-.4-.9-.4-5.4 10-10 21.4-12.1 33.6-.2 1.1-.9 1.8-.9 1.8-5 5-9.9 9.5-15 13.8-.7.5-.6-.4-.6-.4 4-26.3 16.8-50 29-67.5.5-.7.5-1.6.5-1.6v-4.8c0-.9-.7 0-.7 0-14.6 19.3-30.6 47.2-33.9 78.1-.1.9-.7 1.3-.7 1.3-3.7 2.9-7.4 5.6-11 8.1-.9.6-.8-.4-.8-.4 2.4-40.9 29.2-77 46.7-96.4.5-.6.4-1.3.4-1.3v-2.8c0-.8-.6-.2-.6-.2-19.7 20.4-50 61.2-51.2 103.9-.1.7-.6 1.1-.6 1.1-3.1 1.9-6.2 3.7-9.1 5.1-.8.4-.7-.5-.7-.5C48.3 81.5 85.1 38 99.2 23c.3-.2.6-.5.6-.5 1.4-.8 3.6-2.1 5.9-3.4 0 .2.5.1.5-.6M114.7 69.2V53.8c0-.7.4-1.3.4-1.3 8-12.8 16.6-22.8 21.3-27.8 0 0 .5-.5.5.4-.3 5.3-2.4 12.1-6.2 20.1-3.7 7.7-8.9 15.9-15.2 24.2-.1.2-.8.9-.8-.2M115.2 44.7c8.9-12.4 17.6-21.1 20.9-23.9.4-.4.2-.9.2-.9-1.5-4.3-5.4-5.7-6.8-6-.6-.2-.9.4-.9.4-2.9 2.9-7.8 8.2-13.5 15.2 0 0-.4.5-.4 1.3v13.6c-.1 0 0 1 .5.3"/></g></g></svg>