<svg xmlns="http://www.w3.org/2000/svg" viewBox="0 0 1000 377.81"><defs><style>.cls-2{fill:#252122}</style></defs><g id="Layer_2" data-name="Layer 2"><g id="Layer_1-2" data-name="Layer 1"><path d="M0 220.32a1.05 1.05 0 0 0 .91-.83c.84-3.25 3.14-5.2 6-6.64a21.6 21.6 0 0 1 15.35-1.77 11.67 11.67 0 0 1 8.16 6.85c4.21 9.07 8.5 18.1 12.76 27.15q20.73 44.06 41.48 88.12a5.87 5.87 0 0 0 1.34 2.47 5.81 5.81 0 0 0 1.29-2.26q24.08-51.65 48.14-103.32c1.26-2.7 2.51-5.41 3.78-8.11a27.1 27.1 0 0 1 4.14-6.39c4.94-5.66 14.33-7.87 21.43-4 1 .54 2 1.11 3 1.71a21 21 0 0 1 8.24 9.3q16.54 35.56 33.24 71.05l19 40.52c.22.47.45.95.72 1.49 1-.26 1-1.18 1.3-1.8 4.1-8.74 8.14-17.5 12.21-26.26l41-88.33c.07-.16.14-.32.21-.49 2-5.25 6.12-7.44 11.39-8a23.94 23.94 0 0 1 10.92 1 17.19 17.19 0 0 1 4.2 2.15 8.85 8.85 0 0 1 3.6 10.18 21.32 21.32 0 0 1-1.46 3.66Q295.2 264.12 278 300.41q-14.91 31.53-29.81 63.07a39.52 39.52 0 0 1-2.87 5.32c-4.64 6.86-11.18 9.54-19.28 8.83a19.59 19.59 0 0 1-4.88-1 17.49 17.49 0 0 1-8.76-6.86 34.43 34.43 0 0 1-2.62-4.86q-25-53.53-50.08-107.06c-.51-1.08-.76-2.34-1.85-3.23-.92 1.89-1.82 3.69-2.69 5.5l-50.87 105.49c-.23.47-.46.95-.71 1.41a16.58 16.58 0 0 1-11.78 8.88 28.26 28.26 0 0 1-12.8-.22 16.73 16.73 0 0 1-11.46-9.32c-2.06-4.27-4-8.57-6.06-12.86L2.62 228.18a29.56 29.56 0 0 1-1.8-4.37c-.11-.4-.44-.49-.83-.33z" fill="#242021"/><path class="cls-2" d="M999.48 262a20.19 20.19 0 0 0-.16-2.36c-2.55-13.92-9.26-25.26-20.83-33.58a68.82 68.82 0 0 0-20.81-9.93 120.35 120.35 0 0 0-34.32-4.74q-48.63-.09-97.26 0a21 21 0 0 0-2.37.09c-4.88.56-7.8 3.52-8.27 8.39-.09 1-.12 1.93-.12 2.89v143.65a26.81 26.81 0 0 0 .17 3.42 8.45 8.45 0 0 0 7.45 7.71 27.76 27.76 0 0 0 4.72.34h86.71c4.83 0 9.66-.07 14.49-.28a127.4 127.4 0 0 0 21.92-2.79 78.76 78.76 0 0 0 22.36-8.32c12.64-7.23 21.14-17.73 25-31.87a26.54 26.54 0 0 0 1.31-7.23.31.31 0 0 1 .54 0V262a.31.31 0 0 1-.53 0zm-30.2 66.17c-4.12 10.39-11.59 17.39-22 21.36a52.4 52.4 0 0 1-14.87 3.21c-3.51.26-7 .33-10.53.32Q906 353 890 353h-41.35c-3.22 0-2.95.29-2.95-3V239.07c0-3.34-.32-3 2.92-3h78.79a53.55 53.55 0 0 1 20.84 3.81c13.44 5.61 21.14 15.74 23.37 30.11a44.35 44.35 0 0 1 .47 6.82v35.31a42.62 42.62 0 0 1-2.81 16.01zm-584.83-33.8v-70.88a27.43 27.43 0 0 1 .27-4.2c.72-4.65 3.51-7.36 8.18-7.88a24 24 0 0 1 2.63-.08h100.92a111.73 111.73 0 0 1 31.47 4.24 60.06 60.06 0 0 1 15.81 7.05 38.44 38.44 0 0 1 14.9 17 33.91 33.91 0 0 1 3 13.8v22.13a41 41 0 0 1-2.93 15.69 32.87 32.87 0 0 1-12.05 14.63 56.11 56.11 0 0 1-15.71 7.23 113.07 113.07 0 0 1-21.38 4.31 180.28 180.28 0 0 1-19.46 1h-72.2c-3.36 0-3-.39-3 2.9v45.32a14.85 14.85 0 0 1-.47 4.17 8.29 8.29 0 0 1-4.59 5.46 11.22 11.22 0 0 1-4.29 1.19c-3.24.15-6.49.33-9.74.39a20.38 20.38 0 0 1-3.92-.37 8.29 8.29 0 0 1-7-6.92 25.53 25.53 0 0 1-.41-5q-.02-35.61-.03-71.18zm75-1.12h15.81c8.43 0 16.86-.07 25.29-.18a68.23 68.23 0 0 0 13.57-1.64 35.66 35.66 0 0 0 11-4.12c5.49-3.31 8.32-8.13 8.31-14.58v-14a14.44 14.44 0 0 0-2.48-8.18 23.83 23.83 0 0 0-6-6.18 36.16 36.16 0 0 0-8.57-4.57 60.74 60.74 0 0 0-21.67-3.73h-78.83c-.61 0-1 .25-1 .91v53.23c0 3.31-.42 3 2.9 3z"/><path d="M334.21.36a68.42 68.42 0 0 0 8.33-.3 20.53 20.53 0 0 1 3.38 0 68.59 68.59 0 0 0 8.33.3c1.83.19 3.66.42 5.5.55a167.91 167.91 0 0 1 25.48 3.9 180.41 180.41 0 0 1 64.35 28.56q48 33.9 68.12 89.24a183.16 183.16 0 0 1 10.59 59.87v2.63a7.69 7.69 0 0 1-15.3.16c-.23-2.36-.31-4.73-.46-7.1a136.5 136.5 0 0 0-3.53-22.86 155.2 155.2 0 0 0-34.63-67.24c-24-27.51-53.83-45.51-89.2-54.4a173.08 173.08 0 0 0-52.8-4.58 173.1 173.1 0 0 0-110.3 50.17c-18.93 19-32.6 41.25-40.36 67a144.73 144.73 0 0 0-5.24 25.23c-.48 4.19-.92 8.38-1 12.6a7.9 7.9 0 0 1-2.86 6.26A7.69 7.69 0 0 1 160.2 186a15 15 0 0 1-.25-3.67c.07-1.67.16-3.33.21-5a176 176 0 0 1 3.58-30 180.15 180.15 0 0 1 17-48A184.48 184.48 0 0 1 302.46 5a159.42 159.42 0 0 1 20.49-3.49z" fill="#1ea9ae"/><path class="cls-2" d="M584.17 278.27v-54.8a27.23 27.23 0 0 1 .31-4.46 8.38 8.38 0 0 1 7.13-7.42 13.77 13.77 0 0 1 2.61-.25h10.28a12.93 12.93 0 0 1 3.64.5 8 8 0 0 1 5.93 6.1 20.67 20.67 0 0 1 .49 3.38c.09 1 0 2.11 0 3.16v109.34a16.23 16.23 0 0 0 5.09 12 24.11 24.11 0 0 0 12.8 6.28 34.27 34.27 0 0 0 6.55.55h89.85a19.76 19.76 0 0 1 4.71.35 6.82 6.82 0 0 1 5.53 5.65 65.17 65.17 0 0 1 0 13.12 6.7 6.7 0 0 1-6 5.72 23.08 23.08 0 0 1-3.67.3h-87.21a80.53 80.53 0 0 1-24.66-3.52 51.23 51.23 0 0 1-21.69-13 40.52 40.52 0 0 1-11-20.62 41.4 41.4 0 0 1-.75-8.11q.07-27.13.06-54.27z"/><path d="M344.22 63.73c23.95-.08 45.29 7.52 64.31 21.91a102.94 102.94 0 0 1 12 10.63 119.66 119.66 0 0 1 32.64 67.59 67.15 67.15 0 0 1 .75 8.65c0 1.93.19 3.85.3 5.78a10.05 10.05 0 0 1-.34 2.87 5.22 5.22 0 0 1-4.67 4.34 12.62 12.62 0 0 1-2.37.06 5.57 5.57 0 0 1-5.55-5 14.68 14.68 0 0 1-.1-1.84 82.44 82.44 0 0 0-2.91-18.94 84.59 84.59 0 0 0-15.41-30.61 95.51 95.51 0 0 0-26.82-23.44 102.15 102.15 0 0 0-32.87-12.31c-3.26-.62-6.58-1-9.9-1.33a97 97 0 0 0-12.63-.36 101.77 101.77 0 0 0-61 22.82 89.38 89.38 0 0 0-27.44 38.31 81.29 81.29 0 0 0-4.33 17.06 49.81 49.81 0 0 0-.72 8.65 8.86 8.86 0 0 1-.55 3.36 5.12 5.12 0 0 1-4.47 3.57 13.9 13.9 0 0 1-2.89 0 5.15 5.15 0 0 1-4.56-3.46 7.25 7.25 0 0 1-.57-2.82c0-1.84-.05-3.7.09-5.53a141.68 141.68 0 0 1 2.44-18.76 122.58 122.58 0 0 1 7-22.32 118.61 118.61 0 0 1 15.73-26.7 112.3 112.3 0 0 1 23.48-22.54 105.48 105.48 0 0 1 30.27-15.1 99.37 99.37 0 0 1 19.8-4.08c1.92-.19 3.83-.45 5.77-.46s3.68 0 5.52 0z" fill="#fdd750"/><path d="M328.85 294.38v-72a31.16 31.16 0 0 1 .08-3.16 7.72 7.72 0 0 1 6-6.91 12.49 12.49 0 0 1 2.6-.4c3.69-.14 7.37-.26 11.06-.3a14.4 14.4 0 0 1 5.19.74A7.64 7.64 0 0 1 359 219a22.27 22.27 0 0 1 .13 2.89v147.34c-.31 4.61-2.92 7.45-7.5 8.11a18.31 18.31 0 0 1-2.89.19q-5.14-.07-10.27-.24a19.76 19.76 0 0 1-2.87-.35 7.94 7.94 0 0 1-6.62-7.2 31.54 31.54 0 0 1-.08-3.16q-.06-36.09-.05-72.2z" fill="#d02128"/><path d="M344.09 143.31a21.36 21.36 0 0 1 21.33 21.22c0 10.15-8 21.25-21.31 21.23-13.13 0-21.14-10.94-21.18-21.08a21.33 21.33 0 0 1 21.16-21.37z" fill="#d02329"/><path class="cls-2" d="M764.13 293.12h15.52a12.79 12.79 0 0 1 3.64.47 6.62 6.62 0 0 1 4.81 4.77 11.58 11.58 0 0 1 .49 3.37v7.89a11.71 11.71 0 0 1-.49 3.37 6.59 6.59 0 0 1-5.1 4.81 16.09 16.09 0 0 1-3.91.45h-30.25a18.88 18.88 0 0 1-3.39-.33 6.83 6.83 0 0 1-5.83-5.94 14.94 14.94 0 0 1-.19-2.36v-7.89a11.19 11.19 0 0 1 .6-3.87 6.63 6.63 0 0 1 4.41-4.18 12.51 12.51 0 0 1 3.89-.54c5.28 0 10.54-.02 15.8-.02z"/></g></g></svg>