<?xml version="1.0" encoding="UTF-8"?>
<svg width="79px" height="47px" viewBox="0 0 79 47" version="1.1" xmlns="http://www.w3.org/2000/svg" xmlns:xlink="http://www.w3.org/1999/xlink">
    <!-- Generator: Sketch 53.2 (72643) - https://sketchapp.com -->
    <title>rftr_son</title>
    <desc>Created with Sketch.</desc>
    <g id="Page-1" stroke="none" stroke-width="1" fill="none" fill-rule="evenodd">
        <g id="rftr_son" transform="translate(0.390000, 0.690000)" fill-rule="nonzero">
            <path d="M28.48,11.83 C28.48,13.27 28.48,14.72 28.48,16.16 C21.72,18.58 16.04,23.32 12.46,29.53 C11.27,28.85 10.08,28.16 8.9,27.48 C13.22,19.98 20.21,14.4 28.48,11.83 Z" id="Path" stroke="#1C1B17" stroke-width="0.5" fill="#2B2A29"></path>
            <path d="M21.36,34.67 C20.17,33.99 18.98,33.3 17.8,32.62 C20.27,28.33 24,24.92 28.48,22.82 C28.48,24.37 28.48,25.92 28.48,27.47 C25.39,29.3 23.15,31.56 21.36,34.67 Z" id="Path" stroke="#1C1B17" stroke-width="0.5" fill="#2B2A29"></path>
            <path d="M45.11,15.08 C45.11,13.68 45.11,12.28 45.11,10.89 C54.94,12.76 63.46,18.81 68.47,27.48 C67.28,28.16 66.09,28.85 64.91,29.53 C60.64,22.14 53.45,16.89 45.11,15.08 Z" id="Path" stroke="#1C1B17" stroke-width="0.5" fill="#2B2A29"></path>
            <path d="M48.99,27.68 C51.83,29.49 53.91,31.66 55.6,34.57 C56.78,33.89 57.97,33.2 59.16,32.52 C56.07,27.16 51.04,23.2 45.11,21.45 C45.11,22.89 45.11,24.33 45.11,25.77 C45.11,32.44 45.11,39.11 45.11,45.77 C46.4,45.77 47.7,45.77 48.99,45.77 C48.99,39.74 48.99,33.71 48.99,27.68 Z" id="Path" fill="#00A0E3"></path>
            <path d="M28.02,35.35 C26.83,35.3 26.09,35.27 25.78,35.27 C24.42,35.27 23.33,35.71 22.51,36.6 C21.7,37.49 21.29,38.68 21.29,40.18 C21.29,42.07 21.29,43.97 21.29,45.87 C22.58,45.87 23.88,45.87 25.17,45.87 C25.17,44.22 25.17,42.57 25.17,40.93 C25.17,39.87 25.52,39.34 26.23,39.34 C26.45,39.34 27.05,39.4 28.02,39.53 C28.02,38.14 28.02,36.74 28.02,35.35 Z" id="Path" fill="#00A0E3"></path>
            <path d="M40.62,31.38 C39.33,31.38 38.03,31.38 36.74,31.38 C36.74,34.24 36.74,37.1 36.74,39.96 C36.74,41.45 37.04,42.65 37.63,43.55 C38.1,44.26 38.72,44.82 39.5,45.24 C40.27,45.65 41.1,45.86 41.97,45.86 C42.07,45.86 42.22,45.84 42.42,45.82 C42.42,44.44 42.42,43.07 42.42,41.7 C41.73,41.7 41.26,41.54 41,41.23 C40.75,40.92 40.62,40.35 40.62,39.52 C41.19,39.52 41.76,39.52 42.32,39.52 C42.32,38.16 42.32,36.8 42.32,35.45 C41.76,35.45 41.19,35.45 40.62,35.45 C40.62,34.09 40.62,32.73 40.62,31.38 Z" id="Path" fill="#00A0E3"></path>
            <path d="M43.88,21.12 C42.18,20.75 40.48,20.56 38.74,20.56 C37.9,20.56 37.07,20.6 36.24,20.68 C35.83,20.72 35.42,20.78 35.01,20.84 C34.81,20.87 34.61,20.9 34.41,20.94 C34.31,20.96 34.22,20.97 34.12,20.99 C34.06,21 33.97,21.07 33.97,20.97 C33.97,19.39 33.97,17.8 33.97,16.22 C33.97,15.81 33.97,15.39 33.97,14.98 C33.97,14.93 33.97,14.88 33.97,14.83 C33.97,14.8 33.93,14.77 33.97,14.76 C33.98,14.76 33.98,14.76 33.98,14.76 C33.99,14.76 34,14.76 34.01,14.75 C34.04,14.75 34.07,14.74 34.1,14.74 C34.16,14.73 34.22,14.72 34.28,14.71 C34.4,14.69 34.53,14.68 34.65,14.66 C34.9,14.63 35.15,14.6 35.39,14.57 C35.89,14.52 36.4,14.47 36.9,14.44 C37.92,14.38 38.94,14.37 39.97,14.42 C41.02,14.46 42.05,14.56 43.09,14.71 C43.35,14.75 43.61,14.79 43.87,14.84 C43.95,14.85 43.88,14.75 43.88,14.71 C43.88,14.66 43.88,14.62 43.88,14.57 C43.88,14.48 43.88,14.38 43.88,14.29 C43.88,14.1 43.88,13.91 43.88,13.73 C43.88,12.98 43.88,12.23 43.88,11.48 C43.88,11.28 43.88,11.08 43.88,10.88 C43.88,10.8 43.94,10.68 43.81,10.66 C43.73,10.65 43.65,10.64 43.57,10.63 C43.26,10.58 42.94,10.54 42.63,10.51 C42.01,10.44 41.38,10.38 40.75,10.34 C39.51,10.27 38.28,10.26 37.04,10.32 C34.64,10.43 32.32,10.79 30,11.39 C29.91,11.42 29.83,11.44 29.74,11.46 C29.68,11.48 29.71,11.52 29.71,11.56 C29.71,11.79 29.71,12.03 29.71,12.26 C29.71,12.73 29.71,13.19 29.71,13.65 C29.71,14.55 29.71,15.44 29.71,16.34 C29.71,19.55 29.71,22.75 29.71,25.96 C29.71,30.88 29.71,35.8 29.71,40.72 C29.71,42.37 29.71,44.03 29.71,45.68 C29.71,45.76 29.62,45.9 29.76,45.9 C29.81,45.9 29.86,45.9 29.91,45.9 C30.01,45.9 30.1,45.9 30.2,45.9 C30.4,45.9 30.6,45.9 30.79,45.9 C31.58,45.9 32.37,45.9 33.15,45.9 C33.35,45.9 33.55,45.9 33.74,45.9 C33.82,45.9 33.97,46 33.97,45.85 C33.97,45.79 33.97,45.73 33.97,45.66 C33.97,45.43 33.97,45.2 33.97,44.97 C33.97,44.62 33.97,44.28 33.97,43.93 C33.97,42.8 33.97,41.68 33.97,40.55 C33.97,35.62 33.97,30.69 33.97,25.76 C33.97,25.55 33.79,25.27 34.12,25.19 C34.18,25.18 34.24,25.17 34.3,25.15 C34.41,25.13 34.53,25.1 34.64,25.08 C34.87,25.03 35.11,24.99 35.34,24.95 C35.82,24.87 36.3,24.8 36.78,24.76 C37.77,24.66 38.76,24.64 39.76,24.7 C40.78,24.75 41.79,24.88 42.79,25.09 C43.04,25.15 43.29,25.21 43.54,25.27 C43.66,25.3 43.88,25.48 43.88,25.26 C43.88,24.98 43.88,24.71 43.88,24.43 C43.88,23.33 43.88,22.23 43.88,21.12 Z" id="Path" fill="#00A0E3"></path>
            <path d="M0,22.34 C1.18,23.02 2.37,23.71 3.56,24.39 C10.8,11.85 24.19,4.12 38.68,4.11 C53.17,4.11 66.56,11.84 73.81,24.39 C74.99,23.71 76.18,23.02 77.37,22.34 C69.39,8.52 54.64,0 38.68,0 C22.72,0 7.98,8.52 0,22.34 Z" id="Path" stroke="#1C1B17" stroke-width="0.5" fill="#2B2A29"></path>
        </g>
    </g>
</svg>